<svg width="31" height="32" viewBox="0 0 31 32" fill="none" xmlns="http://www.w3.org/2000/svg">
<path fill-rule="evenodd" clip-rule="evenodd" d="M22.454 7.15887C23.1063 7.8083 23.1063 8.86664 22.454 9.51607C21.805 10.1689 20.7475 10.1689 20.0952 9.51607L15.7965 5.21745C15.6317 5.05251 15.3845 5.03877 15.2059 5.17965C15.199 5.18652 15.1913 5.19253 15.1836 5.19855C15.1759 5.20456 15.1681 5.21057 15.1613 5.21745L4.36644 16.0138C4.1879 16.1925 4.1879 16.4708 4.36644 16.6495L15.1647 27.4459C15.3433 27.6246 15.6214 27.6246 15.7999 27.4459L20.0917 23.1438C20.4051 22.8318 20.8291 22.6567 21.2711 22.6567C21.7132 22.6567 22.1372 22.8318 22.4505 23.1438C23.1029 23.7933 23.1029 24.8516 22.4505 25.501L16.7819 31.1707C16.4334 31.5189 15.961 31.7144 15.4686 31.7144C14.9761 31.7144 14.5038 31.5189 14.1553 31.1707L0.637691 17.6529C0.4647 17.4809 0.327407 17.2764 0.233718 17.0511C0.14003 16.8259 0.0917969 16.5843 0.0917969 16.3403C0.0917969 16.0963 0.14003 15.8547 0.233718 15.6294C0.327407 15.4041 0.4647 15.1996 0.637691 15.0277L14.1587 1.50641C14.8797 0.784814 16.0574 0.777942 16.7853 1.48922C18.3304 3.03206 19.4222 4.12475 20.0574 4.76044L22.454 7.15887ZM12.9582 18.9893C12.2737 18.305 11.8892 17.3768 11.8892 16.409C11.8892 15.4412 12.2737 14.513 12.9582 13.8286C13.6426 13.1443 14.571 12.7598 15.539 12.7598C16.5069 12.7598 17.4353 13.1443 18.1197 13.8286C18.8042 14.513 19.1887 15.4412 19.1887 16.409C19.1887 17.3768 18.8042 18.305 18.1197 18.9893C17.4353 19.6737 16.5069 20.0582 15.539 20.0582C14.571 20.0582 13.6426 19.6737 12.9582 18.9893Z" fill="white"/>
<path d="M30.2995 15.0826L26.0797 10.8802C25.4274 10.2308 24.3699 10.2308 23.7209 10.8837C23.5658 11.0382 23.4428 11.2218 23.3588 11.4241C23.2748 11.6264 23.2316 11.8432 23.2316 12.0623C23.2316 12.2813 23.2748 12.4981 23.3588 12.7004C23.4428 12.9027 23.5658 13.0863 23.7209 13.2409L26.5707 16.0894C26.7492 16.2681 26.7492 16.5464 26.5707 16.7251L23.7621 19.5324C23.607 19.687 23.484 19.8706 23.4 20.0729C23.316 20.2752 23.2728 20.492 23.2728 20.711C23.2728 20.9301 23.316 21.1469 23.4 21.3492C23.484 21.5514 23.607 21.7351 23.7621 21.8896C24.0755 22.2017 24.4995 22.3768 24.9415 22.3768C25.3835 22.3768 25.8076 22.2017 26.1209 21.8896L30.3029 17.7078C30.4753 17.5355 30.612 17.3307 30.7051 17.1053C30.7983 16.88 30.8461 16.6384 30.8458 16.3945C30.8455 16.1506 30.797 15.9092 30.7033 15.6841C30.6095 15.459 30.4723 15.2546 30.2995 15.0826Z" fill="#EB5512"/>
</svg>
