<svg width="606" height="678" viewBox="0 0 606 678" fill="none" xmlns="http://www.w3.org/2000/svg">
<path d="M335.461 70.8941C329.179 37.6906 303.681 7.47878 266.359 0C282.172 31.1306 270.475 69.6687 243.923 100.283C255.666 89.9226 263.078 84.3162 284.308 76.2785C287.734 65.1577 288.714 54.2993 287.897 22.4349C310.847 36.4402 315.143 47.1235 322.693 65.9002L322.897 66.4072C328.475 68.4629 331.192 69.4365 335.461 70.8941Z" fill="#E0311E"/>
<path d="M456.615 159.736C418.077 109.738 393.919 86.1556 335.461 70.8941C331.192 69.4365 328.475 68.4629 322.897 66.4072C313.643 61.0759 310.162 59.3278 306.743 58.3306C306.254 62.546 305.549 64.6345 304.051 68.202C301.017 64.0867 300.126 60.1691 299.564 51.1515C291.908 67.3316 289.09 72.1049 284.308 76.2785C263.078 84.3162 255.666 89.9226 243.923 100.283C228.457 118.116 207.95 133.26 184.905 142.686C236.743 137.301 290.59 29.614 413.538 132.814C396.683 125.745 387.655 122.762 373.154 121.148C454.027 179.208 466.287 200.674 476.679 235.117C477.16 210.965 468.209 192.33 439.564 156.147L456.615 159.736Z" fill="#EB5512"/>
<path d="M263.667 47.5619C248.701 39.5785 239.249 35.8881 222.385 35.8088C232.305 39.9687 236.912 43.1304 243.026 50.2541H234.949C244.744 59.1196 246.783 66.5244 250.205 78.9707C252.456 75.495 259.359 63.356 263.667 47.5619Z" fill="#EB5512"/>
<path fill-rule="evenodd" clip-rule="evenodd" d="M455.718 225.246L476.359 241.399C476.529 239.256 476.638 237.167 476.679 235.117C466.287 200.674 454.027 179.208 373.154 121.148C387.655 122.762 396.683 125.745 413.538 132.814C290.59 29.614 236.743 137.301 184.905 142.686C175.855 146.387 166.452 149.146 156.872 150.762C144.893 195.476 180.205 212.682 277.128 226.143C241.231 263.834 145.205 305.114 133.538 365.239L305.846 486.388L425.205 401.135L433.282 370.624L439.564 393.059C453.528 369.419 457.221 347.513 455.718 291.653L473.667 316.78C477.273 290.49 473.424 270.478 455.718 225.246ZM251.102 144.48C254.891 137.373 256.832 133.271 255.59 122.943C273.755 119.005 282.496 119.823 295.974 125.635C276.897 130.439 267.246 134.847 251.102 144.48ZM360.59 163.326C293.282 129.225 214.308 200.119 162.256 156.147C155.077 233.322 335.461 187.555 350.718 258.449L339.949 250.373C346.231 271.013 343.948 274.336 341.743 284.474C334.553 253.339 325.88 239.322 293.282 231.528C294.857 265.035 290.049 272.555 280.718 284.474C282.118 266.246 284.301 252.386 279.82 249.476C239.436 284.474 171.231 312.293 167.641 358.06C190.178 339.857 204.019 330.661 234.949 319.472C209.013 356.926 202.245 378.841 230.461 422.673C234.591 398.124 237.313 384.946 244.82 365.239C253.997 412.61 270.129 432.269 315.718 456.774L316.991 455.178C352.631 410.5 373.003 384.963 370.461 342.805C379.137 352.089 382.104 362.069 385.718 384.085C396.88 354.762 405.379 341.799 395.59 279.987L416.231 306.909C417.073 254.529 415.595 226.177 362.385 201.914C378.789 201.412 386.983 201.048 398.282 200.119C385.162 185.861 373.859 178.992 318.41 176.787C332.401 170.177 342.233 167.555 360.59 163.326Z" fill="#E0311E"/>
<path d="M217 60.1254C221.542 68.0842 221.386 77.7626 220.59 96.0212L83.282 136.404L105.718 361.65L305.846 504.336L506.872 361.65L527.513 136.404L433.282 110.379C411.634 89.0015 398.184 77.2018 346.231 60.1254C345.514 54.0968 344.63 50.7405 340.846 44.8697L567 110.379L539.179 381.392L305.846 551L69.8204 384.085L41.9999 110.379L217 60.1254Z" fill="white"/>
<path d="M162.256 156.147C214.308 200.119 293.282 129.225 360.59 163.326C342.233 167.555 332.401 170.177 318.41 176.787C373.859 178.992 385.162 185.861 398.282 200.119C386.983 201.048 378.789 201.412 362.385 201.914C415.595 226.177 417.073 254.529 416.231 306.909L395.59 279.987C405.379 341.799 396.88 354.762 385.718 384.085C382.104 362.069 379.137 352.089 370.461 342.805C373.003 384.963 352.631 410.5 316.991 455.178L315.718 456.774C270.129 432.269 253.997 412.61 244.82 365.239C237.313 384.946 234.591 398.124 230.461 422.673C202.245 378.841 209.013 356.926 234.949 319.472C204.019 330.661 190.178 339.857 167.641 358.06C171.231 312.293 239.436 284.474 279.82 249.476C284.301 252.386 282.118 266.246 280.718 284.474C290.049 272.555 294.857 265.035 293.282 231.528C325.88 239.322 334.553 253.339 341.743 284.474C343.948 274.336 346.231 271.013 339.949 250.373L350.718 258.449C335.461 187.555 155.077 233.322 162.256 156.147Z" fill="white"/>
<path d="M255.59 122.943C256.832 133.271 254.891 137.373 251.102 144.48C267.246 134.847 276.897 130.439 295.974 125.635C282.496 119.823 273.755 119.005 255.59 122.943Z" fill="white"/>
<path d="M287.897 22.4349C288.714 54.2993 287.734 65.1577 284.308 76.2785C289.09 72.1049 291.908 67.3316 299.564 51.1515C300.126 60.1691 301.017 64.0867 304.051 68.202C305.549 64.6345 306.254 62.546 306.743 58.3306C310.162 59.3278 313.643 61.0759 322.897 66.4072L322.693 65.9002C315.143 47.1235 310.847 36.4402 287.897 22.4349Z" fill="white"/>
<path d="M15.7349 628L0.62085 581.8H11.7088L24.8429 622.72H19.2988L33.0269 581.8H42.9269L56.1269 622.72H50.7809L64.2449 581.8H74.4749L59.3609 628H47.8769L36.1949 592.096H39.2309L27.2189 628H15.7349Z" fill="white"/>
<path d="M90.2777 600.412H112.52V608.728H90.2777V600.412ZM91.0697 619.42H116.216V628H80.4437V581.8H115.358V590.38H91.0697V619.42Z" fill="white"/>
<path d="M124.723 628V581.8H147.295C153.103 581.8 157.459 582.9 160.363 585.1C163.311 587.3 164.785 590.204 164.785 593.812C164.785 596.232 164.191 598.344 163.003 600.148C161.815 601.908 160.187 603.272 158.119 604.24C156.051 605.208 153.675 605.692 150.991 605.692L152.245 602.986C155.149 602.986 157.723 603.47 159.967 604.438C162.211 605.362 163.949 606.748 165.181 608.596C166.457 610.444 167.095 612.71 167.095 615.394C167.095 619.354 165.533 622.456 162.409 624.7C159.285 626.9 154.687 628 148.615 628H124.723ZM135.349 619.948H147.823C150.595 619.948 152.685 619.508 154.093 618.628C155.545 617.704 156.271 616.252 156.271 614.272C156.271 612.336 155.545 610.906 154.093 609.982C152.685 609.014 150.595 608.53 147.823 608.53H134.557V600.742H145.975C148.571 600.742 150.551 600.302 151.915 599.422C153.323 598.498 154.027 597.112 154.027 595.264C154.027 593.46 153.323 592.118 151.915 591.238C150.551 590.314 148.571 589.852 145.975 589.852H135.349V619.948Z" fill="white"/>
<path d="M176.642 628V581.8H194.66C198.708 581.8 202.162 582.438 205.022 583.714C207.882 584.99 210.082 586.838 211.622 589.258C213.162 591.678 213.932 594.56 213.932 597.904C213.932 601.248 213.162 604.13 211.622 606.55C210.082 608.926 207.882 610.774 205.022 612.094C202.162 613.37 198.708 614.008 194.66 614.008H180.272L183.242 610.906V628H176.642ZM183.242 611.566L180.272 608.266H194.462C198.686 608.266 201.876 607.364 204.032 605.56C206.232 603.756 207.332 601.204 207.332 597.904C207.332 594.604 206.232 592.052 204.032 590.248C201.876 588.444 198.686 587.542 194.462 587.542H180.272L183.242 584.242V611.566Z" fill="white"/>
<path d="M229.634 601.732H253.394V607.342H229.634V601.732ZM230.228 622.258H257.156V628H223.628V581.8H256.232V587.542H230.228V622.258Z" fill="white"/>
<path d="M267.843 628V581.8H285.861C289.909 581.8 293.363 582.438 296.223 583.714C299.083 584.99 301.283 586.838 302.823 589.258C304.363 591.678 305.133 594.56 305.133 597.904C305.133 601.248 304.363 604.13 302.823 606.55C301.283 608.926 299.083 610.752 296.223 612.028C293.363 613.304 289.909 613.942 285.861 613.942H271.473L274.443 610.906V628H267.843ZM298.731 628L286.983 611.236H294.045L305.925 628H298.731ZM274.443 611.566L271.473 608.332H285.663C289.887 608.332 293.077 607.43 295.233 605.626C297.433 603.778 298.533 601.204 298.533 597.904C298.533 594.604 297.433 592.052 295.233 590.248C293.077 588.444 289.887 587.542 285.663 587.542H271.473L274.443 584.242V611.566Z" fill="white"/>
<path d="M321.736 603.646H345.562V609.322H321.736V603.646ZM322.396 628H315.796V581.8H348.4V587.542H322.396V628Z" fill="white"/>
<path d="M378.031 628.528C374.511 628.528 371.233 627.934 368.197 626.746C365.205 625.558 362.609 623.908 360.409 621.796C358.209 619.64 356.493 617.132 355.261 614.272C354.029 611.412 353.413 608.288 353.413 604.9C353.413 601.512 354.029 598.388 355.261 595.528C356.493 592.668 358.209 590.182 360.409 588.07C362.609 585.914 365.205 584.242 368.197 583.054C371.189 581.866 374.467 581.272 378.031 581.272C381.551 581.272 384.785 581.866 387.733 583.054C390.725 584.198 393.321 585.848 395.521 588.004C397.765 590.116 399.481 592.602 400.669 595.462C401.901 598.322 402.517 601.468 402.517 604.9C402.517 608.332 401.901 611.478 400.669 614.338C399.481 617.198 397.765 619.706 395.521 621.862C393.321 623.974 390.725 625.624 387.733 626.812C384.785 627.956 381.551 628.528 378.031 628.528ZM378.031 622.654C380.583 622.654 382.937 622.214 385.093 621.334C387.293 620.454 389.185 619.222 390.769 617.638C392.397 616.01 393.651 614.118 394.531 611.962C395.455 609.806 395.917 607.452 395.917 604.9C395.917 602.348 395.455 599.994 394.531 597.838C393.651 595.682 392.397 593.812 390.769 592.228C389.185 590.6 387.293 589.346 385.093 588.466C382.937 587.586 380.583 587.146 378.031 587.146C375.435 587.146 373.037 587.586 370.837 588.466C368.681 589.346 366.789 590.6 365.161 592.228C363.533 593.812 362.257 595.682 361.333 597.838C360.453 599.994 360.013 602.348 360.013 604.9C360.013 607.452 360.453 609.806 361.333 611.962C362.257 614.118 363.533 616.01 365.161 617.638C366.789 619.222 368.681 620.454 370.837 621.334C373.037 622.214 375.435 622.654 378.031 622.654Z" fill="white"/>
<path d="M412.605 628V581.8H430.623C434.671 581.8 438.125 582.438 440.985 583.714C443.845 584.99 446.045 586.838 447.585 589.258C449.125 591.678 449.895 594.56 449.895 597.904C449.895 601.248 449.125 604.13 447.585 606.55C446.045 608.926 443.845 610.752 440.985 612.028C438.125 613.304 434.671 613.942 430.623 613.942H416.235L419.205 610.906V628H412.605ZM443.493 628L431.745 611.236H438.807L450.687 628H443.493ZM419.205 611.566L416.235 608.332H430.425C434.649 608.332 437.839 607.43 439.995 605.626C442.195 603.778 443.295 601.204 443.295 597.904C443.295 594.604 442.195 592.052 439.995 590.248C437.839 588.444 434.649 587.542 430.425 587.542H416.235L419.205 584.242V611.566Z" fill="white"/>
<path d="M460.558 628V581.8H465.97L486.694 616.714H483.79L504.25 581.8H509.662L509.728 628H503.392L503.326 591.766H504.844L486.628 622.39H483.592L465.244 591.766H466.894V628H460.558Z" fill="white"/>
<path d="M529.599 601.732H553.359V607.342H529.599V601.732ZM530.193 622.258H557.121V628H523.593V581.8H556.197V587.542H530.193V622.258Z" fill="white"/>
<path d="M567.808 628V581.8H585.826C589.874 581.8 593.328 582.438 596.188 583.714C599.048 584.99 601.248 586.838 602.788 589.258C604.328 591.678 605.098 594.56 605.098 597.904C605.098 601.248 604.328 604.13 602.788 606.55C601.248 608.926 599.048 610.752 596.188 612.028C593.328 613.304 589.874 613.942 585.826 613.942H571.438L574.408 610.906V628H567.808ZM598.696 628L586.948 611.236H594.01L605.89 628H598.696ZM574.408 611.566L571.438 608.332H585.628C589.852 608.332 593.042 607.43 595.198 605.626C597.398 603.778 598.498 601.204 598.498 597.904C598.498 594.604 597.398 592.052 595.198 590.248C593.042 588.444 589.852 587.542 585.628 587.542H571.438L574.408 584.242V611.566Z" fill="white"/>
<path d="M124.22 663.93H135.05V666.51H124.22V663.93ZM124.52 675H121.52V654H136.34V656.61H124.52V675Z" fill="white"/>
<path d="M149.263 675V654H157.453C159.293 654 160.863 654.29 162.163 654.87C163.463 655.45 164.463 656.29 165.163 657.39C165.863 658.49 166.213 659.8 166.213 661.32C166.213 662.84 165.863 664.15 165.163 665.25C164.463 666.33 163.463 667.16 162.163 667.74C160.863 668.32 159.293 668.61 157.453 668.61H150.913L152.263 667.23V675H149.263ZM163.303 675L157.963 667.38H161.173L166.573 675H163.303ZM152.263 667.53L150.913 666.06H157.363C159.283 666.06 160.733 665.65 161.713 664.83C162.713 663.99 163.213 662.82 163.213 661.32C163.213 659.82 162.713 658.66 161.713 657.84C160.733 657.02 159.283 656.61 157.363 656.61H150.913L152.263 655.11V667.53Z" fill="white"/>
<path d="M182.49 663.06H193.29V665.61H182.49V663.06ZM182.76 672.39H195V675H179.76V654H194.58V656.61H182.76V672.39Z" fill="white"/>
<path d="M211.288 663.06H222.088V665.61H211.288V663.06ZM211.558 672.39H223.798V675H208.558V654H223.378V656.61H211.558V672.39Z" fill="white"/>
<path d="M237.356 675V654H240.356V672.39H251.726V675H237.356Z" fill="white"/>
<path d="M260.688 675L270.198 654H273.168L282.708 675H279.558L271.068 655.68H272.268L263.778 675H260.688ZM264.738 669.75L265.548 667.35H277.368L278.238 669.75H264.738Z" fill="white"/>
<path d="M301.677 675L308.017 661H309.997L316.357 675H314.257L308.597 662.12H309.397L303.737 675H301.677ZM304.377 671.5L304.917 669.9H312.797L313.377 671.5H304.377Z" fill="white"/>
<path d="M320.046 675V661H321.686L330.946 672.5H330.086V661H332.086V675H330.446L321.186 663.5H322.046V675H320.046Z" fill="white"/>
<path d="M337.876 675V661H343.776C345.27 661 346.583 661.293 347.716 661.88C348.863 662.467 349.75 663.287 350.376 664.34C351.016 665.393 351.336 666.613 351.336 668C351.336 669.387 351.016 670.607 350.376 671.66C349.75 672.713 348.863 673.533 347.716 674.12C346.583 674.707 345.27 675 343.776 675H337.876ZM339.876 673.26H343.656C344.816 673.26 345.816 673.04 346.656 672.6C347.51 672.16 348.17 671.547 348.636 670.76C349.103 669.96 349.336 669.04 349.336 668C349.336 666.947 349.103 666.027 348.636 665.24C348.17 664.453 347.51 663.84 346.656 663.4C345.816 662.96 344.816 662.74 343.656 662.74H339.876V673.26Z" fill="white"/>
<path d="M379.492 675.24C376.732 675.24 374.562 674.45 372.982 672.87C371.402 671.29 370.612 668.98 370.612 665.94V654H373.612V665.82C373.612 668.16 374.122 669.87 375.142 670.95C376.182 672.03 377.642 672.57 379.522 672.57C381.422 672.57 382.882 672.03 383.902 670.95C384.942 669.87 385.462 668.16 385.462 665.82V654H388.372V665.94C388.372 668.98 387.582 671.29 386.002 672.87C384.442 674.45 382.272 675.24 379.492 675.24Z" fill="white"/>
<path d="M403.222 675V654H406.222V675H403.222Z" fill="white"/>
<path d="M417.219 678L427.119 649.74H429.729L419.829 678H417.219Z" fill="white"/>
<path d="M449.156 675.24C446.396 675.24 444.226 674.45 442.646 672.87C441.066 671.29 440.276 668.98 440.276 665.94V654H443.276V665.82C443.276 668.16 443.786 669.87 444.806 670.95C445.846 672.03 447.306 672.57 449.186 672.57C451.086 672.57 452.546 672.03 453.566 670.95C454.606 669.87 455.126 668.16 455.126 665.82V654H458.036V665.94C458.036 668.98 457.246 671.29 455.666 672.87C454.106 674.45 451.936 675.24 449.156 675.24Z" fill="white"/>
<path d="M469.834 675L478.564 663.09V665.4L470.314 654H473.734L480.274 662.97L478.924 663L485.434 654H488.704L480.514 665.22V663.06L489.244 675H485.794L478.834 665.43H480.154L473.284 675H469.834Z" fill="white"/>
<path d="M243.026 50.2541C236.912 43.1304 232.305 39.9687 222.385 35.8088C220.671 35.8007 218.88 35.83 217 35.8958C233.287 38.0167 234.284 59.393 234.949 100.283C241.728 92.0817 245.642 86.8933 250.205 78.9707C246.783 66.5244 244.744 59.1196 234.949 50.2541H243.026Z" fill="#E0311E"/>
</svg>
