<svg width="886" height="275" viewBox="0 0 886 275" fill="none" xmlns="http://www.w3.org/2000/svg">
<g filter="url(#filter0_d_10_37)">
<path d="M147.979 35.3534C144.94 19.2638 132.604 4.62402 114.547 1C122.198 16.0851 116.538 34.7596 103.692 49.5945C109.374 44.5741 112.96 41.8574 123.231 37.9625C124.889 32.5737 125.363 27.312 124.968 11.8713C136.071 18.658 138.149 23.8348 141.802 32.9335L141.901 33.1792C144.599 34.1753 145.914 34.6471 147.979 35.3534Z" fill="#E0311E"/>
<path d="M206.595 78.4039C187.95 54.1763 176.262 42.7487 147.979 35.3534C145.914 34.6471 144.599 34.1753 141.901 33.1792C137.423 30.5957 135.739 29.7487 134.085 29.2655C133.849 31.3081 133.508 32.3202 132.783 34.0489C131.315 32.0547 130.884 30.1564 130.612 25.7866C126.908 33.6271 125.545 35.9401 123.231 37.9625C112.96 41.8574 109.374 44.5741 103.692 49.5945C96.2095 58.2358 86.2883 65.5743 75.1388 70.1417C100.219 67.5326 126.27 15.3502 185.754 65.3583C177.599 61.9329 173.231 60.4872 166.215 59.7052C205.342 87.8393 211.274 98.2414 216.302 114.932C216.535 103.228 212.204 94.1981 198.345 76.6645L206.595 78.4039Z" fill="#EB5512"/>
<path d="M113.244 24.0472C106.004 20.1787 101.431 18.3904 93.2718 18.352C98.0712 20.3678 100.3 21.8998 103.258 25.3518H99.3504C104.089 29.6478 105.076 33.236 106.732 39.2671C107.821 37.5829 111.16 31.7007 113.244 24.0472Z" fill="#EB5512"/>
<path d="M90.6667 18.3941C98.5464 19.4219 99.0289 29.7803 99.3504 49.5945C102.63 45.6203 104.524 43.1062 106.732 39.2671C105.076 33.236 104.089 29.6478 99.3504 25.3518H103.258C100.3 21.8998 98.0712 20.3678 93.2718 18.352C92.4426 18.3481 91.5764 18.3623 90.6667 18.3941Z" fill="#E0311E"/>
<path fill-rule="evenodd" clip-rule="evenodd" d="M206.161 110.148L216.147 117.976C216.229 116.937 216.282 115.925 216.302 114.932C211.274 98.2414 205.342 87.8393 166.215 59.7052C173.231 60.4872 177.599 61.9329 185.754 65.3583C126.27 15.3502 100.219 67.5326 75.1388 70.1417C70.7601 71.9354 66.2112 73.2723 61.5761 74.0554C55.7804 95.7224 72.865 104.06 119.757 110.583C102.39 128.847 55.9316 148.85 50.2872 177.985L133.651 236.691L191.398 195.379L195.306 180.594L198.345 191.466C205.101 180.011 206.888 169.396 206.161 142.327L214.844 154.503C216.59 141.764 214.727 132.066 206.161 110.148ZM107.166 71.0114C108.999 67.5673 109.938 65.5797 109.337 60.5749C118.125 58.6667 122.354 59.0633 128.875 61.8795C119.646 64.2071 114.976 66.3435 107.166 71.0114ZM160.137 80.1433C127.573 63.6189 89.3641 97.9723 64.1812 76.6645C60.7077 114.062 147.979 91.8844 155.361 126.238L150.15 122.324C153.19 132.326 152.085 133.936 151.019 138.849C147.54 123.761 143.344 116.969 127.573 113.192C128.335 129.429 126.008 133.073 121.494 138.849C122.172 130.016 123.228 123.299 121.06 121.889C101.521 138.849 68.5231 152.329 66.7863 174.507C77.6902 165.686 84.3863 161.23 99.3504 155.808C86.8025 173.957 83.5282 184.577 97.1795 205.816C99.1776 193.92 100.494 187.535 104.126 177.985C108.566 200.94 116.371 210.466 138.427 222.34L139.043 221.567C156.286 199.918 166.143 187.543 164.913 167.114C169.11 171.613 170.546 176.449 172.294 187.117C177.694 172.908 181.806 166.627 177.07 136.674L187.056 149.72C187.464 124.338 186.749 110.599 161.005 98.842C168.942 98.5991 172.906 98.4227 178.373 97.9723C172.025 91.0635 166.556 87.7347 139.73 86.6661C146.499 83.4634 151.256 82.1926 160.137 80.1433Z" fill="#E0311E"/>
<path d="M90.6667 30.1352C92.8644 33.9918 92.7886 38.6817 92.4034 47.5293L25.9727 67.0977L36.8274 176.246L133.651 245.388L230.909 176.246L240.896 67.0977L195.306 54.487C184.832 44.1278 178.325 38.41 153.19 30.1352C152.843 27.2139 152.415 25.5875 150.585 22.7427L260 54.487L246.54 185.813L133.651 268L19.4598 187.117L6 54.487L90.6667 30.1352Z" fill="white"/>
<path d="M64.1812 76.6645C89.3641 97.9723 127.573 63.6189 160.137 80.1433C151.256 82.1926 146.499 83.4634 139.73 86.6661C166.556 87.7347 172.025 91.0635 178.373 97.9723C172.906 98.4227 168.942 98.5991 161.005 98.842C186.749 110.599 187.464 124.338 187.056 149.72L177.07 136.674C181.806 166.627 177.694 172.908 172.294 187.117C170.546 176.449 169.11 171.613 164.913 167.114C166.143 187.543 156.286 199.918 139.043 221.567L138.427 222.34C116.371 210.466 108.566 200.94 104.126 177.985C100.494 187.535 99.1776 193.92 97.1795 205.816C83.5282 184.577 86.8025 173.957 99.3504 155.808C84.3863 161.23 77.6902 165.686 66.7863 174.507C68.5231 152.329 101.521 138.849 121.06 121.889C123.228 123.299 122.172 130.016 121.494 138.849C126.008 133.073 128.335 129.429 127.573 113.192C143.344 116.969 147.54 123.761 151.019 138.849C152.085 133.936 153.19 132.326 150.15 122.324L155.361 126.238C147.979 91.8844 60.7077 114.062 64.1812 76.6645Z" fill="white"/>
<path d="M109.337 60.5749C109.938 65.5797 108.999 67.5673 107.166 71.0114C114.976 66.3435 119.646 64.2071 128.875 61.8795C122.354 59.0633 118.125 58.6667 109.337 60.5749Z" fill="white"/>
<path d="M124.968 11.8713C125.363 27.312 124.889 32.5737 123.231 37.9625C125.545 35.9401 126.908 33.6271 130.612 25.7866C130.884 30.1564 131.315 32.0547 132.783 34.0489C133.508 32.3202 133.849 31.3081 134.085 29.2655C135.739 29.7487 137.423 30.5957 141.901 33.1792L141.802 32.9335C138.149 23.8348 136.071 18.658 124.968 11.8713Z" fill="white"/>
</g>
<path d="M295.566 134L280.452 87.8H291.54L304.674 128.72H299.13L312.858 87.8H322.758L335.958 128.72H330.612L344.076 87.8H354.306L339.192 134H327.708L316.026 98.096H319.062L307.05 134H295.566Z" fill="white"/>
<path d="M370.109 106.412H392.351V114.728H370.109V106.412ZM370.901 125.42H396.047V134H360.275V87.8H395.189V96.38H370.901V125.42Z" fill="white"/>
<path d="M404.554 134V87.8H427.126C432.934 87.8 437.29 88.9 440.194 91.1C443.142 93.3 444.616 96.204 444.616 99.812C444.616 102.232 444.022 104.344 442.834 106.148C441.646 107.908 440.018 109.272 437.95 110.24C435.882 111.208 433.506 111.692 430.822 111.692L432.076 108.986C434.98 108.986 437.554 109.47 439.798 110.438C442.042 111.362 443.78 112.748 445.012 114.596C446.288 116.444 446.926 118.71 446.926 121.394C446.926 125.354 445.364 128.456 442.24 130.7C439.116 132.9 434.518 134 428.446 134H404.554ZM415.18 125.948H427.654C430.426 125.948 432.516 125.508 433.924 124.628C435.376 123.704 436.102 122.252 436.102 120.272C436.102 118.336 435.376 116.906 433.924 115.982C432.516 115.014 430.426 114.53 427.654 114.53H414.388V106.742H425.806C428.402 106.742 430.382 106.302 431.746 105.422C433.154 104.498 433.858 103.112 433.858 101.264C433.858 99.46 433.154 98.118 431.746 97.238C430.382 96.314 428.402 95.852 425.806 95.852H415.18V125.948Z" fill="white"/>
<path d="M456.473 134V87.8H474.491C478.539 87.8 481.993 88.438 484.853 89.714C487.713 90.99 489.913 92.838 491.453 95.258C492.993 97.678 493.763 100.56 493.763 103.904C493.763 107.248 492.993 110.13 491.453 112.55C489.913 114.926 487.713 116.774 484.853 118.094C481.993 119.37 478.539 120.008 474.491 120.008H460.103L463.073 116.906V134H456.473ZM463.073 117.566L460.103 114.266H474.293C478.517 114.266 481.707 113.364 483.863 111.56C486.063 109.756 487.163 107.204 487.163 103.904C487.163 100.604 486.063 98.052 483.863 96.248C481.707 94.444 478.517 93.542 474.293 93.542H460.103L463.073 90.242V117.566Z" fill="white"/>
<path d="M509.465 107.732H533.225V113.342H509.465V107.732ZM510.059 128.258H536.987V134H503.459V87.8H536.063V93.542H510.059V128.258Z" fill="white"/>
<path d="M547.674 134V87.8H565.692C569.74 87.8 573.194 88.438 576.054 89.714C578.914 90.99 581.114 92.838 582.654 95.258C584.194 97.678 584.964 100.56 584.964 103.904C584.964 107.248 584.194 110.13 582.654 112.55C581.114 114.926 578.914 116.752 576.054 118.028C573.194 119.304 569.74 119.942 565.692 119.942H551.304L554.274 116.906V134H547.674ZM578.562 134L566.814 117.236H573.876L585.756 134H578.562ZM554.274 117.566L551.304 114.332H565.494C569.718 114.332 572.908 113.43 575.064 111.626C577.264 109.778 578.364 107.204 578.364 103.904C578.364 100.604 577.264 98.052 575.064 96.248C572.908 94.444 569.718 93.542 565.494 93.542H551.304L554.274 90.242V117.566Z" fill="white"/>
<path d="M601.567 109.646H625.393V115.322H601.567V109.646ZM602.227 134H595.627V87.8H628.231V93.542H602.227V134Z" fill="white"/>
<path d="M657.862 134.528C654.342 134.528 651.064 133.934 648.028 132.746C645.036 131.558 642.44 129.908 640.24 127.796C638.04 125.64 636.324 123.132 635.092 120.272C633.86 117.412 633.244 114.288 633.244 110.9C633.244 107.512 633.86 104.388 635.092 101.528C636.324 98.668 638.04 96.182 640.24 94.07C642.44 91.914 645.036 90.242 648.028 89.054C651.02 87.866 654.298 87.272 657.862 87.272C661.382 87.272 664.616 87.866 667.564 89.054C670.556 90.198 673.152 91.848 675.352 94.004C677.596 96.116 679.312 98.602 680.5 101.462C681.732 104.322 682.348 107.468 682.348 110.9C682.348 114.332 681.732 117.478 680.5 120.338C679.312 123.198 677.596 125.706 675.352 127.862C673.152 129.974 670.556 131.624 667.564 132.812C664.616 133.956 661.382 134.528 657.862 134.528ZM657.862 128.654C660.414 128.654 662.768 128.214 664.924 127.334C667.124 126.454 669.016 125.222 670.6 123.638C672.228 122.01 673.482 120.118 674.362 117.962C675.286 115.806 675.748 113.452 675.748 110.9C675.748 108.348 675.286 105.994 674.362 103.838C673.482 101.682 672.228 99.812 670.6 98.228C669.016 96.6 667.124 95.346 664.924 94.466C662.768 93.586 660.414 93.146 657.862 93.146C655.266 93.146 652.868 93.586 650.668 94.466C648.512 95.346 646.62 96.6 644.992 98.228C643.364 99.812 642.088 101.682 641.164 103.838C640.284 105.994 639.844 108.348 639.844 110.9C639.844 113.452 640.284 115.806 641.164 117.962C642.088 120.118 643.364 122.01 644.992 123.638C646.62 125.222 648.512 126.454 650.668 127.334C652.868 128.214 655.266 128.654 657.862 128.654Z" fill="white"/>
<path d="M692.436 134V87.8H710.454C714.502 87.8 717.956 88.438 720.816 89.714C723.676 90.99 725.876 92.838 727.416 95.258C728.956 97.678 729.726 100.56 729.726 103.904C729.726 107.248 728.956 110.13 727.416 112.55C725.876 114.926 723.676 116.752 720.816 118.028C717.956 119.304 714.502 119.942 710.454 119.942H696.066L699.036 116.906V134H692.436ZM723.324 134L711.576 117.236H718.638L730.518 134H723.324ZM699.036 117.566L696.066 114.332H710.256C714.48 114.332 717.67 113.43 719.826 111.626C722.026 109.778 723.126 107.204 723.126 103.904C723.126 100.604 722.026 98.052 719.826 96.248C717.67 94.444 714.48 93.542 710.256 93.542H696.066L699.036 90.242V117.566Z" fill="white"/>
<path d="M740.389 134V87.8H745.801L766.525 122.714H763.621L784.081 87.8H789.493L789.559 134H783.223L783.157 97.766H784.675L766.459 128.39H763.423L745.075 97.766H746.725V134H740.389Z" fill="white"/>
<path d="M809.43 107.732H833.19V113.342H809.43V107.732ZM810.024 128.258H836.952V134H803.424V87.8H836.028V93.542H810.024V128.258Z" fill="white"/>
<path d="M847.639 134V87.8H865.657C869.705 87.8 873.159 88.438 876.019 89.714C878.879 90.99 881.079 92.838 882.619 95.258C884.159 97.678 884.929 100.56 884.929 103.904C884.929 107.248 884.159 110.13 882.619 112.55C881.079 114.926 878.879 116.752 876.019 118.028C873.159 119.304 869.705 119.942 865.657 119.942H851.269L854.239 116.906V134H847.639ZM878.527 134L866.779 117.236H873.841L885.721 134H878.527ZM854.239 117.566L851.269 114.332H865.459C869.683 114.332 872.873 113.43 875.029 111.626C877.229 109.778 878.329 107.204 878.329 103.904C878.329 100.604 877.229 98.052 875.029 96.248C872.873 94.444 869.683 93.542 865.459 93.542H851.269L854.239 90.242V117.566Z" fill="white"/>
<path d="M284.85 169.93H295.68V172.51H284.85V169.93ZM285.15 181H282.15V160H296.97V162.61H285.15V181Z" fill="white"/>
<path d="M309.893 181V160H318.083C319.923 160 321.493 160.29 322.793 160.87C324.093 161.45 325.093 162.29 325.793 163.39C326.493 164.49 326.843 165.8 326.843 167.32C326.843 168.84 326.493 170.15 325.793 171.25C325.093 172.33 324.093 173.16 322.793 173.74C321.493 174.32 319.923 174.61 318.083 174.61H311.543L312.893 173.23V181H309.893ZM323.933 181L318.593 173.38H321.803L327.203 181H323.933ZM312.893 173.53L311.543 172.06H317.993C319.913 172.06 321.363 171.65 322.343 170.83C323.343 169.99 323.843 168.82 323.843 167.32C323.843 165.82 323.343 164.66 322.343 163.84C321.363 163.02 319.913 162.61 317.993 162.61H311.543L312.893 161.11V173.53Z" fill="white"/>
<path d="M343.12 169.06H353.92V171.61H343.12V169.06ZM343.39 178.39H355.63V181H340.39V160H355.21V162.61H343.39V178.39Z" fill="white"/>
<path d="M371.918 169.06H382.718V171.61H371.918V169.06ZM372.188 178.39H384.428V181H369.188V160H384.008V162.61H372.188V178.39Z" fill="white"/>
<path d="M397.985 181V160H400.985V178.39H412.355V181H397.985Z" fill="white"/>
<path d="M421.318 181L430.828 160H433.798L443.338 181H440.188L431.698 161.68H432.898L424.408 181H421.318ZM425.368 175.75L426.178 173.35H437.998L438.868 175.75H425.368Z" fill="white"/>
<path d="M462.307 181L468.647 167H470.627L476.987 181H474.887L469.227 168.12H470.027L464.367 181H462.307ZM465.007 177.5L465.547 175.9H473.427L474.007 177.5H465.007Z" fill="white"/>
<path d="M480.676 181V167H482.316L491.576 178.5H490.716V167H492.716V181H491.076L481.816 169.5H482.676V181H480.676Z" fill="white"/>
<path d="M498.506 181V167H504.406C505.899 167 507.213 167.293 508.346 167.88C509.493 168.467 510.379 169.287 511.006 170.34C511.646 171.393 511.966 172.613 511.966 174C511.966 175.387 511.646 176.607 511.006 177.66C510.379 178.713 509.493 179.533 508.346 180.12C507.213 180.707 505.899 181 504.406 181H498.506ZM500.506 179.26H504.286C505.446 179.26 506.446 179.04 507.286 178.6C508.139 178.16 508.799 177.547 509.266 176.76C509.733 175.96 509.966 175.04 509.966 174C509.966 172.947 509.733 172.027 509.266 171.24C508.799 170.453 508.139 169.84 507.286 169.4C506.446 168.96 505.446 168.74 504.286 168.74H500.506V179.26Z" fill="white"/>
<path d="M540.122 181.24C537.362 181.24 535.192 180.45 533.612 178.87C532.032 177.29 531.242 174.98 531.242 171.94V160H534.242V171.82C534.242 174.16 534.752 175.87 535.772 176.95C536.812 178.03 538.272 178.57 540.152 178.57C542.052 178.57 543.512 178.03 544.532 176.95C545.572 175.87 546.092 174.16 546.092 171.82V160H549.002V171.94C549.002 174.98 548.212 177.29 546.632 178.87C545.072 180.45 542.902 181.24 540.122 181.24Z" fill="white"/>
<path d="M563.852 181V160H566.852V181H563.852Z" fill="white"/>
<path d="M577.849 184L587.749 155.74H590.359L580.459 184H577.849Z" fill="white"/>
<path d="M609.786 181.24C607.026 181.24 604.856 180.45 603.276 178.87C601.696 177.29 600.906 174.98 600.906 171.94V160H603.906V171.82C603.906 174.16 604.416 175.87 605.436 176.95C606.476 178.03 607.936 178.57 609.816 178.57C611.716 178.57 613.176 178.03 614.196 176.95C615.236 175.87 615.756 174.16 615.756 171.82V160H618.666V171.94C618.666 174.98 617.876 177.29 616.296 178.87C614.736 180.45 612.566 181.24 609.786 181.24Z" fill="white"/>
<path d="M630.464 181L639.194 169.09V171.4L630.944 160H634.364L640.904 168.97L639.554 169L646.064 160H649.334L641.144 171.22V169.06L649.874 181H646.424L639.464 171.43H640.784L633.914 181H630.464Z" fill="white"/>
<defs>
<filter id="filter0_d_10_37" x="0" y="0" width="262" height="275" filterUnits="userSpaceOnUse" color-interpolation-filters="sRGB">
<feFlood flood-opacity="0" result="BackgroundImageFix"/>
<feColorMatrix in="SourceAlpha" type="matrix" values="0 0 0 0 0 0 0 0 0 0 0 0 0 0 0 0 0 0 127 0" result="hardAlpha"/>
<feOffset dx="-2" dy="3"/>
<feGaussianBlur stdDeviation="2"/>
<feComposite in2="hardAlpha" operator="out"/>
<feColorMatrix type="matrix" values="0 0 0 0 0 0 0 0 0 0 0 0 0 0 0 0 0 0 0.75 0"/>
<feBlend mode="normal" in2="BackgroundImageFix" result="effect1_dropShadow_10_37"/>
<feBlend mode="normal" in="SourceGraphic" in2="effect1_dropShadow_10_37" result="shape"/>
</filter>
</defs>
</svg>
