<svg width="1145" height="325" viewBox="0 0 1145 325" fill="none" xmlns="http://www.w3.org/2000/svg">
<path d="M133 300C133 298.343 134.343 297 136 297H390C391.657 297 393 298.343 393 300V320.766C393 322.511 391.487 323.886 389.746 323.756C290.961 316.393 234.291 315.443 136.285 323.72C134.534 323.868 133 322.49 133 320.732V300Z" fill="#A3ACBD"/>
<path d="M135 299.777C135 298.21 136.233 296.905 137.795 296.784C235.469 289.259 291.378 287.077 388.275 296.727C389.808 296.879 391 298.172 391 299.712V316.669C391 318.45 389.429 319.835 387.658 319.652C290.493 309.598 234.751 309.194 138.357 319.634C136.581 319.826 135 318.439 135 316.653V299.777Z" fill="#848B99"/>
<path d="M241 259H284V296.5C284 300.366 280.866 303.5 277 303.5H248C244.134 303.5 241 300.366 241 296.5V259Z" fill="#A3ACBD"/>
<rect y="3" width="525" height="269" rx="14" fill="#A3ACBD"/>
<rect x="6" y="9" width="513" height="257" rx="11" fill="#848B99"/>
<g filter="url(#filter0_d_92_21)">
<path d="M109.238 166V112.1H117.477L151.28 153.603H147.199V112.1H157.132V166H148.893L115.09 124.497H119.171V166H109.238ZM180.815 134.507H207.611V142.746H180.815V134.507ZM181.585 157.607H212V166H171.575V112.1H210.922V120.493H181.585V157.607ZM216.012 166L238.727 134.738V142.284L217.09 112.1H228.409L244.502 134.43L239.882 134.507L255.821 112.1H266.678L245.195 141.745V134.507L268.064 166H256.514L239.574 142.284H244.117L227.408 166H216.012ZM284.549 166V120.57H266.685V112.1H312.423V120.57H294.559V166H284.549ZM319.61 166.539C317.864 166.539 316.376 165.949 315.144 164.768C313.912 163.536 313.296 161.996 313.296 160.148C313.296 158.197 313.912 156.657 315.144 155.528C316.376 154.347 317.864 153.757 319.61 153.757C321.355 153.757 322.844 154.347 324.076 155.528C325.308 156.657 325.924 158.197 325.924 160.148C325.924 161.996 325.308 163.536 324.076 164.768C322.844 165.949 321.355 166.539 319.61 166.539ZM348.857 166.77C345.417 166.77 342.235 166.103 339.309 164.768C336.434 163.433 334.073 161.508 332.225 158.993L337.923 152.14C339.411 154.193 341.028 155.733 342.774 156.76C344.57 157.787 346.521 158.3 348.626 158.3C354.221 158.3 357.019 154.989 357.019 148.367V120.493H337.846V112.1H367.029V147.828C367.029 154.193 365.463 158.942 362.332 162.073C359.252 165.204 354.76 166.77 348.857 166.77ZM397.778 166.77C393.569 166.77 389.539 166.18 385.689 164.999C381.839 163.767 378.785 162.201 376.526 160.302L379.991 152.525C382.147 154.219 384.816 155.631 387.999 156.76C391.182 157.889 394.441 158.454 397.778 158.454C400.601 158.454 402.886 158.146 404.631 157.53C406.376 156.914 407.66 156.093 408.481 155.066C409.302 153.988 409.713 152.782 409.713 151.447C409.713 149.804 409.123 148.495 407.942 147.52C406.761 146.493 405.221 145.698 403.322 145.133C401.474 144.517 399.395 143.952 397.085 143.439C394.826 142.926 392.542 142.335 390.232 141.668C387.973 140.949 385.894 140.051 383.995 138.973C382.147 137.844 380.633 136.355 379.452 134.507C378.271 132.659 377.681 130.298 377.681 127.423C377.681 124.497 378.451 121.828 379.991 119.415C381.582 116.951 383.969 115 387.152 113.563C390.386 112.074 394.467 111.33 399.395 111.33C402.629 111.33 405.837 111.741 409.02 112.562C412.203 113.383 414.975 114.564 417.336 116.104L414.179 123.881C411.766 122.444 409.277 121.391 406.71 120.724C404.143 120.005 401.679 119.646 399.318 119.646C396.546 119.646 394.287 119.98 392.542 120.647C390.848 121.314 389.59 122.187 388.769 123.265C387.999 124.343 387.614 125.575 387.614 126.961C387.614 128.604 388.179 129.938 389.308 130.965C390.489 131.94 392.003 132.71 393.851 133.275C395.75 133.84 397.855 134.404 400.165 134.969C402.475 135.482 404.759 136.073 407.018 136.74C409.328 137.407 411.407 138.28 413.255 139.358C415.154 140.436 416.669 141.899 417.798 143.747C418.979 145.595 419.569 147.931 419.569 150.754C419.569 153.629 418.773 156.298 417.182 158.762C415.642 161.175 413.255 163.125 410.021 164.614C406.787 166.051 402.706 166.77 397.778 166.77Z" fill="white"/>
</g>
<path d="M783.061 156.061C783.646 155.475 783.646 154.525 783.061 153.939L773.515 144.393C772.929 143.808 771.979 143.808 771.393 144.393C770.808 144.979 770.808 145.929 771.393 146.515L779.879 155L771.393 163.485C770.808 164.071 770.808 165.021 771.393 165.607C771.979 166.192 772.929 166.192 773.515 165.607L783.061 156.061ZM563 156.5H782V153.5H563V156.5Z" fill="#848B99"/>
<path d="M857 50.2392V203.761C857 229.848 908.286 251 971.5 251C1034.71 251 1086 229.848 1086 203.761V50.2392" fill="#A3ACBD"/>
<path d="M1086 153.231C1086 179.569 1034.71 200.923 971.5 200.923C908.286 200.923 857 179.569 857 153.231" fill="#A3ACBD"/>
<path d="M971.5 98.3846C1034.74 98.3846 1086 77.0321 1086 50.6923C1086 24.3526 1034.74 3 971.5 3C908.263 3 857 24.3526 857 50.6923C857 77.0321 908.263 98.3846 971.5 98.3846Z" fill="#A3ACBD"/>
<path d="M857 50.2392V203.761C857 229.848 908.286 251 971.5 251C1034.71 251 1086 229.848 1086 203.761V50.2392M1086 101.962C1086 128.3 1034.71 149.654 971.5 149.654C908.286 149.654 857 128.3 857 101.962M1086 153.231C1086 179.569 1034.71 200.923 971.5 200.923C908.286 200.923 857 179.569 857 153.231M1086 50.6923C1086 77.0321 1034.74 98.3846 971.5 98.3846C908.263 98.3846 857 77.0321 857 50.6923C857 24.3526 908.263 3 971.5 3C1034.74 3 1086 24.3526 1086 50.6923Z" stroke="#848B99" stroke-width="6" stroke-miterlimit="10" stroke-linecap="round"/>
<g filter="url(#filter1_d_92_21)">
<path d="M819.349 316.59C816.124 316.59 813.036 316.138 810.086 315.233C807.136 314.289 804.796 313.089 803.065 311.634L805.72 305.675C807.372 306.973 809.418 308.055 811.856 308.92C814.295 309.785 816.793 310.218 819.349 310.218C821.513 310.218 823.263 309.982 824.6 309.51C825.938 309.038 826.921 308.409 827.55 307.622C828.18 306.796 828.494 305.872 828.494 304.849C828.494 303.59 828.042 302.587 827.137 301.84C826.233 301.053 825.053 300.444 823.597 300.011C822.181 299.539 820.588 299.106 818.818 298.713C817.088 298.32 815.337 297.867 813.567 297.356C811.837 296.805 810.244 296.117 808.788 295.291C807.372 294.426 806.212 293.285 805.307 291.869C804.403 290.453 803.95 288.644 803.95 286.441C803.95 284.199 804.54 282.154 805.72 280.305C806.94 278.417 808.769 276.922 811.207 275.821C813.685 274.68 816.812 274.11 820.588 274.11C823.066 274.11 825.525 274.425 827.963 275.054C830.402 275.683 832.526 276.588 834.335 277.768L831.916 283.727C830.068 282.626 828.16 281.819 826.193 281.308C824.227 280.757 822.339 280.482 820.529 280.482C818.405 280.482 816.675 280.738 815.337 281.249C814.039 281.76 813.076 282.429 812.446 283.255C811.856 284.081 811.561 285.025 811.561 286.087C811.561 287.346 811.994 288.368 812.859 289.155C813.764 289.902 814.924 290.492 816.34 290.925C817.796 291.358 819.408 291.79 821.178 292.223C822.948 292.616 824.699 293.069 826.429 293.58C828.199 294.091 829.792 294.76 831.208 295.586C832.664 296.412 833.824 297.533 834.689 298.949C835.594 300.365 836.046 302.155 836.046 304.318C836.046 306.521 835.437 308.566 834.217 310.454C833.037 312.303 831.208 313.797 828.73 314.938C826.252 316.039 823.125 316.59 819.349 316.59Z" fill="white"/>
<path d="M857.753 316.413C854.252 316.413 851.184 315.725 848.549 314.348C845.953 312.932 843.927 311.005 842.472 308.566C841.056 306.127 840.348 303.354 840.348 300.247C840.348 297.1 841.036 294.327 842.413 291.928C843.829 289.489 845.756 287.582 848.195 286.205C850.673 284.828 853.485 284.14 856.632 284.14C859.7 284.14 862.434 284.809 864.833 286.146C867.232 287.483 869.12 289.371 870.497 291.81C871.874 294.249 872.562 297.12 872.562 300.424C872.562 300.739 872.542 301.093 872.503 301.486C872.503 301.879 872.483 302.253 872.444 302.607H846.189V297.71H868.55L865.659 299.244C865.698 297.435 865.325 295.842 864.538 294.465C863.751 293.088 862.67 292.007 861.293 291.22C859.956 290.433 858.402 290.04 856.632 290.04C854.823 290.04 853.23 290.433 851.853 291.22C850.516 292.007 849.454 293.108 848.667 294.524C847.92 295.901 847.546 297.533 847.546 299.421V300.601C847.546 302.489 847.979 304.161 848.844 305.616C849.709 307.071 850.929 308.192 852.502 308.979C854.075 309.766 855.885 310.159 857.93 310.159C859.7 310.159 861.293 309.884 862.709 309.333C864.125 308.782 865.384 307.917 866.485 306.737L870.438 311.28C869.022 312.932 867.232 314.21 865.069 315.115C862.945 315.98 860.506 316.413 857.753 316.413Z" fill="white"/>
<path d="M879.646 316V284.494H886.667V293.167L885.841 290.63C886.785 288.506 888.26 286.893 890.266 285.792C892.311 284.691 894.848 284.14 897.877 284.14V291.161C897.562 291.082 897.267 291.043 896.992 291.043C896.717 291.004 896.441 290.984 896.166 290.984C893.373 290.984 891.151 291.81 889.499 293.462C887.847 295.075 887.021 297.494 887.021 300.719V316H879.646Z" fill="white"/>
<path d="M913.664 316L900.153 284.494H907.823L919.446 312.283H915.67L927.706 284.494H934.786L921.275 316H913.664Z" fill="white"/>
<path d="M953.34 316.413C949.839 316.413 946.771 315.725 944.136 314.348C941.54 312.932 939.514 311.005 938.059 308.566C936.643 306.127 935.935 303.354 935.935 300.247C935.935 297.1 936.623 294.327 938 291.928C939.416 289.489 941.343 287.582 943.782 286.205C946.26 284.828 949.072 284.14 952.219 284.14C955.287 284.14 958.02 284.809 960.42 286.146C962.819 287.483 964.707 289.371 966.084 291.81C967.46 294.249 968.149 297.12 968.149 300.424C968.149 300.739 968.129 301.093 968.09 301.486C968.09 301.879 968.07 302.253 968.031 302.607H941.776V297.71H964.137L961.246 299.244C961.285 297.435 960.911 295.842 960.125 294.465C959.338 293.088 958.256 292.007 956.88 291.22C955.542 290.433 953.989 290.04 952.219 290.04C950.409 290.04 948.816 290.433 947.44 291.22C946.102 292.007 945.04 293.108 944.254 294.524C943.506 295.901 943.133 297.533 943.133 299.421V300.601C943.133 302.489 943.565 304.161 944.431 305.616C945.296 307.071 946.515 308.192 948.089 308.979C949.662 309.766 951.471 310.159 953.517 310.159C955.287 310.159 956.88 309.884 958.296 309.333C959.712 308.782 960.97 307.917 962.072 306.737L966.025 311.28C964.609 312.932 962.819 314.21 960.656 315.115C958.532 315.98 956.093 316.413 953.34 316.413Z" fill="white"/>
<path d="M975.233 316V284.494H982.254V293.167L981.428 290.63C982.372 288.506 983.847 286.893 985.853 285.792C987.898 284.691 990.435 284.14 993.464 284.14V291.161C993.149 291.082 992.854 291.043 992.579 291.043C992.304 291.004 992.028 290.984 991.753 290.984C988.96 290.984 986.738 291.81 985.086 293.462C983.434 295.075 982.608 297.494 982.608 300.719V316H975.233Z" fill="white"/>
<path d="M1029.83 316.59C1026.6 316.59 1023.51 316.138 1020.56 315.233C1017.61 314.289 1015.27 313.089 1013.54 311.634L1016.2 305.675C1017.85 306.973 1019.89 308.055 1022.33 308.92C1024.77 309.785 1027.27 310.218 1029.83 310.218C1031.99 310.218 1033.74 309.982 1035.08 309.51C1036.41 309.038 1037.4 308.409 1038.03 307.622C1038.66 306.796 1038.97 305.872 1038.97 304.849C1038.97 303.59 1038.52 302.587 1037.61 301.84C1036.71 301.053 1035.53 300.444 1034.07 300.011C1032.66 299.539 1031.06 299.106 1029.29 298.713C1027.56 298.32 1025.81 297.867 1024.04 297.356C1022.31 296.805 1020.72 296.117 1019.26 295.291C1017.85 294.426 1016.69 293.285 1015.78 291.869C1014.88 290.453 1014.43 288.644 1014.43 286.441C1014.43 284.199 1015.02 282.154 1016.2 280.305C1017.42 278.417 1019.24 276.922 1021.68 275.821C1024.16 274.68 1027.29 274.11 1031.06 274.11C1033.54 274.11 1036 274.425 1038.44 275.054C1040.88 275.683 1043 276.588 1044.81 277.768L1042.39 283.727C1040.54 282.626 1038.64 281.819 1036.67 281.308C1034.7 280.757 1032.81 280.482 1031.01 280.482C1028.88 280.482 1027.15 280.738 1025.81 281.249C1024.52 281.76 1023.55 282.429 1022.92 283.255C1022.33 284.081 1022.04 285.025 1022.04 286.087C1022.04 287.346 1022.47 288.368 1023.34 289.155C1024.24 289.902 1025.4 290.492 1026.82 290.925C1028.27 291.358 1029.88 291.79 1031.65 292.223C1033.42 292.616 1035.17 293.069 1036.91 293.58C1038.68 294.091 1040.27 294.76 1041.68 295.586C1043.14 296.412 1044.3 297.533 1045.17 298.949C1046.07 300.365 1046.52 302.155 1046.52 304.318C1046.52 306.521 1045.91 308.566 1044.69 310.454C1043.51 312.303 1041.68 313.797 1039.21 314.938C1036.73 316.039 1033.6 316.59 1029.83 316.59Z" fill="white"/>
<path d="M1053.42 316V284.494H1060.79V316H1053.42ZM1057.14 279.302C1055.76 279.302 1054.62 278.869 1053.71 278.004C1052.85 277.139 1052.42 276.096 1052.42 274.877C1052.42 273.618 1052.85 272.576 1053.71 271.75C1054.62 270.885 1055.76 270.452 1057.14 270.452C1058.51 270.452 1059.63 270.865 1060.5 271.691C1061.4 272.478 1061.86 273.481 1061.86 274.7C1061.86 275.998 1061.42 277.099 1060.56 278.004C1059.69 278.869 1058.55 279.302 1057.14 279.302Z" fill="white"/>
<path d="M1083.81 316.413C1080.78 316.413 1078.05 315.744 1075.61 314.407C1073.21 313.03 1071.32 311.142 1069.94 308.743C1068.57 306.344 1067.88 303.512 1067.88 300.247C1067.88 296.982 1068.57 294.15 1069.94 291.751C1071.32 289.352 1073.21 287.483 1075.61 286.146C1078.05 284.809 1080.78 284.14 1083.81 284.14C1086.44 284.14 1088.8 284.73 1090.89 285.91C1092.97 287.051 1094.62 288.801 1095.84 291.161C1097.06 293.521 1097.67 296.55 1097.67 300.247C1097.67 303.905 1097.08 306.934 1095.9 309.333C1094.72 311.693 1093.09 313.463 1091.01 314.643C1088.92 315.823 1086.52 316.413 1083.81 316.413ZM1084.69 310.1C1086.46 310.1 1088.04 309.707 1089.41 308.92C1090.83 308.133 1091.95 306.993 1092.78 305.498C1093.64 304.003 1094.07 302.253 1094.07 300.247C1094.07 298.202 1093.64 296.451 1092.78 294.996C1091.95 293.501 1090.83 292.361 1089.41 291.574C1088.04 290.787 1086.46 290.394 1084.69 290.394C1082.92 290.394 1081.33 290.787 1079.91 291.574C1078.54 292.361 1077.42 293.501 1076.55 294.996C1075.73 296.451 1075.31 298.202 1075.31 300.247C1075.31 302.253 1075.73 304.003 1076.55 305.498C1077.42 306.993 1078.54 308.133 1079.91 308.92C1081.33 309.707 1082.92 310.1 1084.69 310.1ZM1094.25 316V308.566L1094.55 300.188L1093.96 291.81V272.222H1101.27V316H1094.25Z" fill="white"/>
<path d="M1125.79 316.413C1122.29 316.413 1119.22 315.725 1116.58 314.348C1113.99 312.932 1111.96 311.005 1110.51 308.566C1109.09 306.127 1108.38 303.354 1108.38 300.247C1108.38 297.1 1109.07 294.327 1110.45 291.928C1111.86 289.489 1113.79 287.582 1116.23 286.205C1118.71 284.828 1121.52 284.14 1124.67 284.14C1127.74 284.14 1130.47 284.809 1132.87 286.146C1135.27 287.483 1137.16 289.371 1138.53 291.81C1139.91 294.249 1140.6 297.12 1140.6 300.424C1140.6 300.739 1140.58 301.093 1140.54 301.486C1140.54 301.879 1140.52 302.253 1140.48 302.607H1114.22V297.71H1136.59L1133.69 299.244C1133.73 297.435 1133.36 295.842 1132.57 294.465C1131.79 293.088 1130.7 292.007 1129.33 291.22C1127.99 290.433 1126.44 290.04 1124.67 290.04C1122.86 290.04 1121.26 290.433 1119.89 291.22C1118.55 292.007 1117.49 293.108 1116.7 294.524C1115.95 295.901 1115.58 297.533 1115.58 299.421V300.601C1115.58 302.489 1116.01 304.161 1116.88 305.616C1117.74 307.071 1118.96 308.192 1120.54 308.979C1122.11 309.766 1123.92 310.159 1125.97 310.159C1127.74 310.159 1129.33 309.884 1130.74 309.333C1132.16 308.782 1133.42 307.917 1134.52 306.737L1138.47 311.28C1137.06 312.932 1135.27 314.21 1133.1 315.115C1130.98 315.98 1128.54 316.413 1125.79 316.413Z" fill="white"/>
</g>
<defs>
<filter id="filter0_d_92_21" x="105.238" y="111.33" width="318.331" height="63.44" filterUnits="userSpaceOnUse" color-interpolation-filters="sRGB">
<feFlood flood-opacity="0" result="BackgroundImageFix"/>
<feColorMatrix in="SourceAlpha" type="matrix" values="0 0 0 0 0 0 0 0 0 0 0 0 0 0 0 0 0 0 127 0" result="hardAlpha"/>
<feOffset dy="4"/>
<feGaussianBlur stdDeviation="2"/>
<feComposite in2="hardAlpha" operator="out"/>
<feColorMatrix type="matrix" values="0 0 0 0 0 0 0 0 0 0 0 0 0 0 0 0 0 0 0.25 0"/>
<feBlend mode="normal" in2="BackgroundImageFix" result="effect1_dropShadow_92_21"/>
<feBlend mode="normal" in="SourceGraphic" in2="effect1_dropShadow_92_21" result="shape"/>
</filter>
<filter id="filter1_d_92_21" x="799.065" y="270.452" width="345.531" height="54.1381" filterUnits="userSpaceOnUse" color-interpolation-filters="sRGB">
<feFlood flood-opacity="0" result="BackgroundImageFix"/>
<feColorMatrix in="SourceAlpha" type="matrix" values="0 0 0 0 0 0 0 0 0 0 0 0 0 0 0 0 0 0 127 0" result="hardAlpha"/>
<feOffset dy="4"/>
<feGaussianBlur stdDeviation="2"/>
<feComposite in2="hardAlpha" operator="out"/>
<feColorMatrix type="matrix" values="0 0 0 0 0 0 0 0 0 0 0 0 0 0 0 0 0 0 0.25 0"/>
<feBlend mode="normal" in2="BackgroundImageFix" result="effect1_dropShadow_92_21"/>
<feBlend mode="normal" in="SourceGraphic" in2="effect1_dropShadow_92_21" result="shape"/>
</filter>
</defs>
</svg>
