<svg width="28" height="27" viewBox="0 0 28 27" fill="none" xmlns="http://www.w3.org/2000/svg">
<path d="M0.390625 0.308105V24.903C0.390625 25.2867 0.543051 25.6547 0.814371 25.926C1.08569 26.1974 1.45368 26.3498 1.83739 26.3498H26.4323V23.4563H3.28415V0.308105H0.390625Z" fill="#EB5512"/>
<path d="M18.1756 17.2453C18.3099 17.3798 18.4693 17.4865 18.6448 17.5593C18.8204 17.6321 19.0085 17.6695 19.1985 17.6695C19.3885 17.6695 19.5767 17.6321 19.7522 17.5593C19.9277 17.4865 20.0871 17.3798 20.2214 17.2453L27.4552 10.0115L25.4094 7.96581L19.1985 14.1767L15.8811 10.8593C15.7468 10.7249 15.5874 10.6182 15.4119 10.5454C15.2364 10.4726 15.0482 10.4351 14.8582 10.4351C14.6682 10.4351 14.4801 10.4726 14.3046 10.5454C14.129 10.6182 13.9696 10.7249 13.8354 10.8593L6.60157 18.0931L8.64729 20.1388L14.8582 13.9279L18.1756 17.2453Z" fill="white"/>
</svg>
