<svg width="630" height="465" viewBox="0 0 630 465" fill="none" xmlns="http://www.w3.org/2000/svg">
<path d="M627.013 103.63V445.574C627.013 449.844 625.317 453.938 622.298 456.957C619.279 459.976 615.184 461.672 610.914 461.672H19.0868C14.8169 461.672 10.722 459.976 7.70272 456.957C4.68349 453.938 2.98729 449.844 2.98729 445.574V103.63H627.013Z" fill="white"/>
<path d="M610.914 464.629H19.0864C14.0319 464.621 9.18634 462.612 5.60951 459.041C2.03268 455.47 0.015789 450.628 0 445.574V103.63C0 102.838 0.31469 102.078 0.874845 101.518C1.435 100.958 2.19474 100.643 2.98691 100.643H627.013C627.805 100.643 628.565 100.958 629.125 101.518C629.685 102.078 630 102.838 630 103.63V445.574C629.984 450.628 627.967 455.47 624.39 459.041C620.814 462.612 615.968 464.621 610.914 464.629ZM5.97383 106.617V445.574C5.98172 449.049 7.36575 452.38 9.82312 454.837C12.2805 457.294 15.6111 458.678 19.0864 458.686H610.914C614.389 458.678 617.719 457.294 620.177 454.837C622.634 452.38 624.018 449.049 624.026 445.574V106.617H5.97383Z" fill="#093F68"/>
<path d="M19.0866 58.0236H610.944C615.214 58.0236 619.308 59.7196 622.328 62.7386C625.347 65.7576 627.043 69.8522 627.043 74.1217V103.66H3.01697V74.1217C3.01696 69.8574 4.70905 65.7673 7.72183 62.7492C10.7346 59.731 14.8219 58.0315 19.0866 58.0236Z" fill="#53637A"/>
<path d="M627.013 106.617H3.01659C2.22441 106.617 1.46468 106.302 0.904522 105.742C0.344367 105.182 0.0296778 104.422 0.0296778 103.63V74.1217C0.0296717 69.0653 2.03645 64.2155 5.60938 60.6373C9.18231 57.059 14.0293 55.0448 19.0862 55.0369H610.943C616 55.0448 620.847 57.059 624.42 60.6373C627.993 64.2155 630 69.0653 630 74.1217L630 103.63C630 104.422 629.685 105.182 629.125 105.742C628.565 106.302 627.805 106.617 627.013 106.617ZM6.00351 100.643H624.026V74.1217C624.026 70.6495 622.648 67.3191 620.196 64.8611C617.743 62.403 614.416 61.0181 610.943 61.0102H19.0862C15.6137 61.0181 12.2861 62.403 9.8335 64.8611C7.38087 67.3191 6.0035 70.6495 6.00351 74.1217V100.643Z" fill="#093F68"/>
<path d="M570.65 461.643H59.3794C63.362 453.439 67.7926 445.475 72.6712 437.749C98.1836 396.445 133.849 362.361 176.268 338.745C218.688 315.13 266.449 302.769 315 302.841C318.793 302.841 322.586 302.841 326.35 303.08C377.558 305.136 427.268 320.946 470.256 348.847C513.244 376.748 547.923 415.711 570.65 461.643Z" fill="#68E1FD"/>
<path d="M570.65 464.629H59.3795C58.8719 464.63 58.3724 464.502 57.9282 464.256C57.484 464.011 57.1097 463.656 56.8406 463.226C56.5785 462.771 56.4405 462.256 56.4405 461.732C56.4405 461.208 56.5785 460.693 56.8406 460.239C60.9137 451.955 65.3997 443.881 70.2818 436.047C96.0742 394.311 132.125 359.874 174.999 336.018C217.874 312.162 266.143 299.681 315.209 299.765C319.48 299.765 323.244 299.765 326.678 300.004C378.42 302.077 428.647 318.048 472.082 346.239C515.518 374.429 550.557 413.799 573.517 460.209C573.779 460.663 573.917 461.178 573.917 461.702C573.917 462.227 573.779 462.742 573.517 463.196C573.225 463.682 572.8 464.076 572.292 464.33C571.784 464.584 571.214 464.688 570.65 464.629ZM565.9 458.656C543.016 414.325 508.792 376.85 466.713 350.046C424.633 323.242 376.202 308.068 326.35 306.067C322.975 305.888 319.301 305.828 315.119 305.828C267.077 305.745 219.814 317.969 177.838 341.335C135.861 364.7 100.57 398.428 75.3297 439.302C71.2376 445.574 67.5637 452.145 64.0989 458.656H565.9Z" fill="#093F68"/>
<path d="M37.2169 85.5906C41.0935 85.5906 44.2361 82.4482 44.2361 78.5719C44.2361 74.6956 41.0935 71.5532 37.2169 71.5532C33.3403 71.5532 30.1976 74.6956 30.1976 78.5719C30.1976 82.4482 33.3403 85.5906 37.2169 85.5906Z" fill="#F56132"/>
<path d="M37.2172 71.5831C38.6067 71.5831 39.965 71.9955 41.1199 72.768C42.2749 73.5406 43.1745 74.6385 43.7049 75.9227C44.2353 77.207 44.3725 78.6198 44.0993 79.982C43.826 81.3443 43.1545 82.5949 42.1699 83.5753C41.1852 84.5556 39.9317 85.2217 38.5681 85.4892C37.2046 85.7566 35.7923 85.6134 34.5102 85.0775C33.2282 84.5417 32.134 83.6375 31.3663 82.4794C30.5986 81.3212 30.1917 79.9613 30.1976 78.5719C30.1976 77.6516 30.3797 76.7403 30.7328 75.8905C31.0859 75.0406 31.6034 74.2688 32.2556 73.6194C32.9078 72.9701 33.6818 72.4559 34.5333 72.1065C35.3847 71.757 36.2968 71.5791 37.2172 71.5831ZM37.2172 65.6097C34.6448 65.6038 32.1286 66.3615 29.9874 67.7868C27.8461 69.2121 26.1761 71.2409 25.189 73.6161C24.2019 75.9913 23.9421 78.606 24.4424 81.129C24.9428 83.652 26.1809 85.9697 27.9998 87.7885C29.8187 89.6072 32.1366 90.8452 34.6598 91.3455C37.183 91.8459 39.7979 91.5861 42.1733 90.5991C44.5487 89.612 46.5777 87.9422 48.0031 85.8011C49.4285 83.66 50.1863 81.144 50.1804 78.5719C50.1725 75.1365 48.8042 71.8441 46.3748 69.415C43.9454 66.9858 40.6528 65.6176 37.2172 65.6097Z" fill="#093F68"/>
<path d="M69.4462 85.5906C73.3228 85.5906 76.4654 82.4482 76.4654 78.5719C76.4654 74.6956 73.3228 71.5532 69.4462 71.5532C65.5695 71.5532 62.4269 74.6956 62.4269 78.5719C62.4269 82.4482 65.5695 85.5906 69.4462 85.5906Z" fill="#FFBC0E"/>
<path d="M69.4454 71.5831C70.8349 71.5831 72.1932 71.9955 73.3482 72.768C74.5031 73.5406 75.4028 74.6385 75.9332 75.9227C76.4635 77.207 76.6008 78.6198 76.3275 79.982C76.0542 81.3443 75.3828 82.5949 74.3981 83.5753C73.4135 84.5557 72.16 85.2217 70.7964 85.4892C69.4328 85.7566 68.0206 85.6134 66.7385 85.0775C65.4564 84.5417 64.3623 83.6375 63.5946 82.4794C62.8269 81.3212 62.421 79.9613 62.4269 78.5719C62.4348 76.7156 63.1771 74.938 64.4926 73.6282C65.8081 72.3184 67.5889 71.583 69.4454 71.5831ZM69.4454 65.6097C66.8743 65.6097 64.3611 66.3725 62.2237 67.8014C60.0864 69.2303 58.4211 71.2611 57.4385 73.6368C56.456 76.0126 56.2004 78.6264 56.7042 81.1474C57.208 83.6684 58.4484 85.9833 60.2685 87.799C62.0886 89.6148 64.4066 90.8498 66.9289 91.3478C69.4513 91.8457 72.0647 91.5841 74.4384 90.5962C76.812 89.6083 78.8392 87.9384 80.2633 85.798C81.6874 83.6575 82.4444 81.1427 82.4385 78.5719C82.4306 75.1314 81.0582 71.8344 78.6223 69.4044C76.1865 66.9744 72.8862 65.6097 69.4454 65.6097Z" fill="#093F68"/>
<path d="M101.675 85.5906C105.551 85.5906 108.694 82.4482 108.694 78.5719C108.694 74.6956 105.551 71.5532 101.675 71.5532C97.798 71.5532 94.6554 74.6956 94.6554 78.5719C94.6554 82.4482 97.798 85.5906 101.675 85.5906Z" fill="#70CC40"/>
<path d="M101.675 71.5831C103.066 71.5771 104.427 71.9845 105.586 72.7535C106.744 73.5224 107.649 74.6183 108.184 75.902C108.719 77.1857 108.86 78.5994 108.59 79.9636C108.32 81.3279 107.651 82.5813 106.668 83.5646C105.684 84.548 104.431 85.2171 103.067 85.487C101.702 85.7568 100.288 85.6153 99.0046 85.0804C97.7208 84.5454 96.6248 83.6412 95.8558 82.4824C95.0868 81.3237 94.6794 79.9626 94.6853 78.5719C94.6932 76.7208 95.4321 74.9477 96.7411 73.6387C98.0502 72.3298 99.8234 71.5909 101.675 71.5831ZM101.675 65.6097C99.1037 65.6097 96.5904 66.3725 94.453 67.8014C92.3157 69.2303 90.6504 71.2611 89.6678 73.6368C88.6853 76.0126 88.4297 78.6264 88.9335 81.1474C89.4373 83.6684 90.6777 85.9833 92.4978 87.799C94.3179 89.6148 96.6359 90.8498 99.1582 91.3478C101.681 91.8457 104.294 91.5841 106.668 90.5962C109.041 89.6083 111.068 87.9384 112.493 85.798C113.917 83.6575 114.674 81.1427 114.668 78.5719C114.66 75.1314 113.287 71.8344 110.852 69.4044C108.416 66.9744 105.116 65.6097 101.675 65.6097Z" fill="#093F68"/>
<path d="M228.38 328.586C228.161 337.611 226.116 346.498 222.368 354.711C218.621 362.924 213.248 370.293 206.575 376.373C194.986 386.797 179.424 393.517 171.837 407.136C162.877 423.324 167.417 445.455 160.875 461.732H93.1321C85.9566 455.814 79.7048 448.858 74.5833 441.094C73.8964 439.989 73.2691 438.884 72.6717 437.809C108.28 380.408 163.076 337.478 227.334 316.64C228.107 320.573 228.457 324.578 228.38 328.586Z" fill="#70CC40"/>
<path d="M160.845 464.629H93.1319C92.3956 464.636 91.6829 464.37 91.1307 463.883C83.7407 457.757 77.2988 450.571 72.0144 442.558C71.3374 441.423 70.6803 440.288 70.0431 439.153C69.7809 438.699 69.6429 438.184 69.6429 437.66C69.6429 437.135 69.7809 436.62 70.0431 436.166C106.012 378.152 161.382 334.765 226.318 313.713C226.722 313.581 227.15 313.536 227.572 313.583C227.994 313.629 228.402 313.765 228.768 313.981C229.13 314.197 229.442 314.487 229.684 314.832C229.926 315.177 230.092 315.569 230.172 315.983C230.979 320.153 231.34 324.399 231.247 328.646C230.985 338.058 228.832 347.322 224.917 355.885C221.002 364.449 215.404 372.137 208.457 378.494C204.338 382.08 200.02 385.43 195.523 388.529C187.1 394.502 179.125 400.117 174.615 408.48C170.105 416.842 169.179 427.206 168.372 437.271C168.122 445.943 166.582 454.529 163.802 462.748C163.571 463.333 163.16 463.83 162.629 464.168C162.098 464.506 161.474 464.667 160.845 464.629ZM94.2669 458.656H158.754C160.768 451.531 161.931 444.192 162.219 436.793C163.085 426.101 163.952 415.021 169.179 405.583C174.406 396.145 183.396 389.724 192.029 383.661C196.381 380.697 200.56 377.486 204.544 374.043C210.904 368.246 216.032 361.229 219.624 353.41C223.216 345.59 225.198 337.128 225.452 328.527C225.509 325.842 225.369 323.157 225.034 320.492C163.341 341.257 110.712 382.688 76.0468 437.779C76.3466 438.343 76.6756 438.892 77.0324 439.422C81.7992 446.646 87.6067 453.128 94.2669 458.656Z" fill="#093F68"/>
<path d="M570.65 461.643H513.42C508.815 455.555 503.467 450.067 497.5 445.305C490.989 440.348 482.805 435.808 481.162 427.804C477.936 412.273 480.803 408.689 464.764 404.239C455.52 401.288 445.738 400.421 436.119 401.7C424.381 403.671 416.047 407.942 404.518 400.685C399.694 397.569 395.799 393.213 393.239 388.074C390.68 382.934 389.551 377.201 389.971 371.475C391.017 359.259 399.111 347.074 394.78 335.635C393.287 331.722 390.36 328.138 390.33 323.927C390.121 304.335 431.46 327.541 438.807 331.095C496.033 358.779 542.418 404.719 570.65 461.672L570.65 461.643Z" fill="#70CC40"/>
<path d="M570.65 464.629L513.42 464.629C512.967 464.632 512.519 464.531 512.11 464.334C511.701 464.137 511.342 463.85 511.061 463.494C506.612 457.598 501.444 452.281 495.678 447.665C494.633 446.859 493.528 446.082 492.393 445.276C486.419 441.034 479.818 436.316 478.235 428.401C477.637 425.414 477.219 423.025 476.891 420.874C475.457 411.914 475.218 410.242 463.957 407.106C455.142 404.27 445.806 403.433 436.627 404.657C434.327 405.015 432.206 405.493 430.145 405.941C421.423 407.853 413.209 409.674 402.905 403.193C397.627 399.778 393.365 395.007 390.564 389.379C387.763 383.752 386.527 377.475 386.984 371.206C387.558 366.463 388.608 361.79 390.121 357.258C392.301 349.941 394.362 343.012 391.973 336.68C391.484 335.454 390.926 334.258 390.3 333.096C388.578 330.326 387.553 327.18 387.313 323.927C387.168 322.176 387.5 320.419 388.273 318.842C389.046 317.264 390.232 315.926 391.704 314.967C400.485 309.561 419.631 317.954 437.194 326.914L440.181 328.377C497.992 356.347 544.85 402.76 573.368 460.299C573.63 460.753 573.768 461.268 573.768 461.792C573.768 462.316 573.63 462.831 573.368 463.285C573.076 463.731 572.67 464.091 572.192 464.328C571.714 464.564 571.181 464.668 570.65 464.629ZM514.854 458.656H565.632C537.519 404.274 492.555 360.455 437.463 333.753L434.476 332.23C412.881 321.179 399.559 317.028 394.87 319.925C394.422 320.194 393.257 320.911 393.287 323.867C393.534 326.188 394.322 328.417 395.587 330.378C396.329 331.726 396.977 333.123 397.528 334.56C400.515 342.773 398.185 351.016 395.826 358.961C394.416 363.104 393.416 367.375 392.839 371.714C392.472 376.895 393.5 382.079 395.817 386.728C398.133 391.376 401.654 395.319 406.011 398.146C414.225 403.313 420.318 401.969 428.771 400.117C430.922 399.639 433.162 399.161 435.522 398.743C445.548 397.4 455.747 398.287 465.391 401.342C479.609 405.314 480.923 409.226 482.625 419.919C482.954 422.009 483.312 424.399 483.91 427.176C485.045 432.732 490.212 436.465 495.708 440.437C496.873 441.273 498.008 442.08 499.113 442.916C504.979 447.505 510.265 452.791 514.854 458.656Z" fill="#093F68"/>
<path d="M241.642 403.94C240.895 383.033 220.494 398.594 215.237 406.927C211.175 413.288 197.077 421.561 205.828 429.237C208.172 431.061 210.971 432.206 213.92 432.548C216.87 432.891 219.857 432.417 222.555 431.178C227.935 428.613 232.503 424.614 235.757 419.62C239.386 415.18 241.454 409.671 241.642 403.94Z" fill="#70CC40"/>
<path d="M215.446 435.569C211.205 435.653 207.08 434.176 203.857 431.417C202.74 430.549 201.822 429.453 201.162 428.201C200.503 426.95 200.118 425.572 200.034 424.16C199.855 418.873 204.335 414.304 208.308 410.242C209.933 408.729 211.404 407.058 212.698 405.254C216.701 399.012 228.619 388.559 237.161 390.888C240.387 391.754 244.3 394.711 244.629 403.821C244.498 410.203 242.226 416.357 238.177 421.293C234.636 426.759 229.625 431.117 223.72 433.866C221.102 434.976 218.29 435.555 215.446 435.569ZM234.354 396.503C229.395 396.503 220.793 403.522 217.627 408.45C216.1 410.602 214.37 412.603 212.459 414.423C209.473 417.41 205.799 421.203 205.888 423.921C205.953 424.519 206.146 425.096 206.456 425.611C206.765 426.127 207.183 426.569 207.68 426.908C209.608 428.357 211.893 429.256 214.292 429.509C216.691 429.761 219.113 429.358 221.301 428.341C226.18 425.997 230.315 422.348 233.248 417.798C236.488 413.907 238.356 409.058 238.565 404C238.565 401.013 237.848 397.25 235.578 396.623C235.177 396.53 234.765 396.489 234.354 396.503Z" fill="#093F68"/>
<path d="M285.937 272.049C285.937 272.049 274.408 293.582 273.034 329.094C271.66 364.606 306.756 458.208 306.756 458.208H323.543C323.543 458.208 347.438 397.28 354.816 348.926C362.193 300.571 344.093 272.049 344.093 272.049H285.937Z" fill="#F56132"/>
<path d="M344.062 272.049C344.062 272.049 362.253 300.213 354.816 348.926C347.378 397.638 323.543 458.208 323.543 458.208H306.756C306.756 458.208 271.689 364.606 273.183 329.094C274.676 293.582 286.086 272.049 286.086 272.049H344.212H344.062ZM344.212 266.075H285.937C284.874 266.06 283.827 266.329 282.903 266.854C281.979 267.379 281.211 268.141 280.68 269.062C280.172 269.988 268.464 292.238 267.06 328.795C265.656 365.352 299.707 456.386 301.17 460.209C301.601 461.342 302.365 462.317 303.363 463.005C304.361 463.693 305.544 464.062 306.756 464.062H323.542C324.742 464.061 325.914 463.698 326.905 463.022C327.896 462.345 328.66 461.386 329.098 460.269C330.084 457.76 353.322 398.146 360.729 349.762C368.406 299.406 349.887 269.988 349.11 268.763C348.568 267.918 347.821 267.223 346.939 266.742C346.056 266.262 345.067 266.012 344.062 266.015L344.212 266.075Z" fill="#093F68"/>
<path d="M344.063 232.386H285.938L285.937 272.049L344.062 272.049L344.063 232.386Z" fill="#093F68"/>
<path d="M344.092 275.035H285.937C285.145 275.035 284.385 274.721 283.825 274.16C283.265 273.6 282.95 272.841 282.95 272.049V232.386C282.95 231.593 283.265 230.834 283.825 230.274C284.385 229.714 285.145 229.399 285.937 229.399H344.092C344.885 229.399 345.644 229.714 346.205 230.274C346.765 230.834 347.079 231.593 347.079 232.386V272.049C347.079 272.841 346.765 273.6 346.205 274.16C345.644 274.721 344.885 275.035 344.092 275.035ZM288.924 269.062H341.106V235.372H288.924V269.062Z" fill="#093F68"/>
<path d="M278.231 174.593L228.678 222.231L243.075 302.035L269.39 235.97L284.892 229.966L278.231 174.593Z" fill="#68E1FD"/>
<path d="M243.075 305.021H242.777C242.132 304.954 241.527 304.678 241.053 304.236C240.579 303.794 240.261 303.21 240.148 302.572L225.751 222.798C225.663 222.314 225.695 221.814 225.847 221.345C225.998 220.876 226.263 220.452 226.617 220.11L276.141 172.324C276.54 171.935 277.04 171.666 277.585 171.548C278.129 171.429 278.696 171.465 279.221 171.651C279.747 171.837 280.209 172.167 280.557 172.603C280.904 173.038 281.123 173.562 281.188 174.116L287.879 229.488C287.955 230.149 287.809 230.817 287.462 231.385C287.116 231.953 286.59 232.389 285.967 232.624L271.66 238.18L245.853 303.02C245.651 303.598 245.276 304.1 244.779 304.458C244.283 304.816 243.688 305.013 243.075 305.021ZM231.904 223.276L244.18 291.223L266.612 234.864C266.762 234.487 266.988 234.143 267.276 233.856C267.564 233.568 267.907 233.342 268.285 233.192L281.666 227.995L275.961 180.895L231.904 223.276Z" fill="#093F68"/>
<path d="M351.799 174.593L401.352 222.231L386.925 302.035L360.64 235.97L345.138 229.966L351.799 174.593Z" fill="#68E1FD"/>
<path d="M386.925 305.021C386.332 305.016 385.754 304.834 385.265 304.499C384.775 304.164 384.397 303.691 384.177 303.14L358.341 238.299L344.033 232.744C343.416 232.504 342.897 232.065 342.556 231.498C342.216 230.93 342.073 230.265 342.151 229.608L348.842 174.235C348.907 173.682 349.126 173.158 349.474 172.722C349.821 172.286 350.284 171.957 350.809 171.77C351.334 171.584 351.901 171.548 352.446 171.667C352.99 171.786 353.49 172.055 353.89 172.443L403.413 220.23C403.768 220.572 404.033 220.996 404.184 221.465C404.335 221.934 404.368 222.433 404.279 222.918L389.882 302.692C389.768 303.334 389.446 303.922 388.966 304.364C388.486 304.806 387.874 305.079 387.224 305.141L386.925 305.021ZM348.364 227.995L361.716 233.192C362.099 233.339 362.448 233.563 362.741 233.851C363.034 234.139 363.265 234.484 363.418 234.864L385.85 291.223L398.126 223.276L354.069 180.895L348.364 227.995Z" fill="#093F68"/>
<path d="M358.221 248.991C367.54 203.385 373.155 153.985 373.155 121.162C373.155 50.8854 314.911 3.00904 314.911 3.00904C314.911 3.00904 256.696 50.7958 256.696 121.162C256.696 154.015 262.401 203.385 271.63 248.991H358.221Z" fill="#68E1FD"/>
<path d="M358.221 251.978H271.81C271.111 251.992 270.429 251.761 269.884 251.324C269.338 250.888 268.962 250.274 268.823 249.589C259.533 204.132 253.739 154.941 253.739 121.162C253.739 50.2881 312.462 1.18717 313.059 0.679437C313.593 0.240151 314.264 0 314.956 0C315.647 0 316.318 0.240151 316.852 0.679437C317.45 1.18717 376.172 50.2881 376.172 121.162C376.172 154.941 370.378 204.161 361.089 249.589C360.953 250.253 360.595 250.852 360.074 251.286C359.553 251.721 358.899 251.965 358.221 251.978ZM274.259 246.005H355.772C364.583 202.22 370.258 153.418 370.258 121.162C370.258 60.2934 324.947 15.9413 315 6.98132C305.084 15.9413 259.772 60.2934 259.772 121.162C259.772 153.478 265.448 202.22 274.259 246.005Z" fill="#093F68"/>
<path d="M315 138.783C331.051 138.783 344.063 125.772 344.063 109.723C344.063 93.6733 331.051 80.6625 315 80.6625C298.949 80.6625 285.938 93.6733 285.938 109.723C285.938 125.772 298.949 138.783 315 138.783Z" fill="white"/>
<path d="M315 141.77C308.662 141.764 302.469 139.879 297.202 136.354C291.935 132.83 287.832 127.822 285.411 121.966C282.99 116.11 282.359 109.667 283.599 103.453C284.839 97.238 287.894 91.5305 292.378 87.0517C296.861 82.5728 302.572 79.5236 308.788 78.2895C315.004 77.0554 321.447 77.6917 327.301 80.1182C333.156 82.5446 338.16 86.6522 341.68 91.9216C345.2 97.1911 347.079 103.386 347.079 109.723C347.063 118.223 343.678 126.369 337.664 132.377C331.651 138.384 323.5 141.762 315 141.77ZM315 83.6492C309.844 83.6551 304.805 85.1893 300.521 88.0579C296.237 90.9265 292.899 95.0007 290.93 99.7656C288.961 104.53 288.449 109.772 289.458 114.828C290.468 119.884 292.954 124.527 296.602 128.17C300.25 131.814 304.896 134.294 309.953 135.298C315.011 136.301 320.252 135.783 325.015 133.809C329.778 131.835 333.849 128.493 336.713 124.206C339.577 119.918 341.105 114.878 341.105 109.723C341.097 102.805 338.344 96.1731 333.449 91.2842C328.554 86.3953 321.918 83.6492 315 83.6492Z" fill="#093F68"/>
<path d="M306.756 272.885C306.756 272.885 297.318 287.818 297.377 313.832C297.377 337.397 314.552 408.48 314.552 408.48C314.552 408.48 334.863 322.374 332.772 302.871C330.681 283.368 323.125 273.004 323.125 273.004L306.756 272.885Z" fill="#FFBC0E"/>
<path d="M314.552 411.466C313.866 411.485 313.194 411.266 312.65 410.847C312.106 410.428 311.723 409.835 311.565 409.167C310.878 406.18 294.361 337.487 294.301 313.832C294.301 287.161 303.739 272.019 304.128 271.272C304.4 270.847 304.776 270.498 305.22 270.258C305.664 270.018 306.162 269.894 306.667 269.898H323.035C323.506 269.897 323.971 270.007 324.392 270.22C324.812 270.433 325.176 270.742 325.454 271.123C325.783 271.601 333.519 282.472 335.64 302.543C337.76 322.613 318.196 405.613 317.39 409.167C317.232 409.835 316.849 410.428 316.305 410.847C315.761 411.266 315.089 411.485 314.403 411.466H314.552ZM308.578 275.871C302.941 287.717 300.159 300.718 300.454 313.832C300.454 330.796 309.743 373.715 314.612 395.159C320.108 370.609 331.428 317.506 329.905 303.17C329.063 293.588 326.224 284.29 321.571 275.871H308.578Z" fill="#093F68"/>
<path d="M182.471 249.081C181.869 249.079 181.282 248.896 180.786 248.555C180.291 248.214 179.91 247.731 179.693 247.17L161.144 199.383C160.981 199.014 160.894 198.617 160.888 198.213C160.883 197.81 160.959 197.41 161.112 197.037C161.265 196.665 161.492 196.327 161.779 196.044C162.067 195.761 162.408 195.539 162.783 195.392C163.159 195.245 163.56 195.175 163.963 195.187C164.366 195.199 164.762 195.292 165.128 195.461C165.494 195.63 165.822 195.872 166.092 196.171C166.362 196.47 166.569 196.821 166.7 197.202L185.278 244.989C185.561 245.726 185.541 246.545 185.222 247.267C184.903 247.989 184.311 248.555 183.576 248.842C183.226 248.991 182.851 249.072 182.471 249.081Z" fill="#DFEAEF"/>
<path d="M131.334 276.947C130.93 276.941 130.531 276.854 130.161 276.69C129.791 276.525 129.459 276.288 129.184 275.991L71.8051 215.123C71.5251 214.845 71.3029 214.515 71.1513 214.151C70.9996 213.787 70.9216 213.396 70.9216 213.002C70.9216 212.608 70.9996 212.217 71.1513 211.853C71.3029 211.489 71.5251 211.159 71.8051 210.881C72.3647 210.325 73.1218 210.013 73.9109 210.013C74.7 210.013 75.457 210.325 76.0166 210.881L133.395 271.78C133.952 272.339 134.264 273.096 134.264 273.885C134.264 274.674 133.952 275.431 133.395 275.991C132.861 276.569 132.12 276.912 131.334 276.947Z" fill="#DFEAEF"/>
<path d="M82.8872 324.704C82.4196 324.701 81.9592 324.588 81.543 324.375L42.7132 304.693C42.3621 304.514 42.0496 304.269 41.7936 303.969C41.5376 303.67 41.343 303.323 41.2209 302.949C41.0989 302.575 41.0518 302.18 41.0823 301.787C41.1129 301.395 41.2205 301.012 41.3989 300.661C41.5774 300.31 41.8233 299.997 42.1225 299.741C42.4217 299.485 42.7685 299.291 43.1429 299.169C43.5173 299.047 43.9121 299 44.3048 299.03C44.6974 299.061 45.0802 299.168 45.4313 299.347L84.2611 319.059C84.8587 319.365 85.3357 319.863 85.6151 320.474C85.8946 321.084 85.9603 321.771 85.8015 322.423C85.6427 323.076 85.2688 323.655 84.74 324.069C84.2113 324.483 83.5585 324.706 82.8872 324.704Z" fill="#DFEAEF"/>
<path d="M447.38 249.081C447.011 249.084 446.646 249.013 446.305 248.872C445.569 248.585 444.978 248.019 444.659 247.297C444.34 246.575 444.319 245.756 444.602 245.019L463.181 197.232C463.312 196.851 463.518 196.5 463.789 196.201C464.059 195.902 464.387 195.66 464.752 195.491C465.118 195.322 465.515 195.229 465.918 195.217C466.321 195.205 466.722 195.275 467.097 195.422C467.472 195.569 467.814 195.791 468.101 196.074C468.389 196.356 468.616 196.694 468.769 197.067C468.922 197.44 468.998 197.84 468.993 198.243C468.987 198.646 468.9 199.044 468.736 199.413L450.188 247.199C449.965 247.76 449.577 248.24 449.076 248.576C448.574 248.911 447.983 249.088 447.38 249.081Z" fill="#DFEAEF"/>
<path d="M498.546 276.947C497.777 276.944 497.039 276.644 496.485 276.11C495.929 275.551 495.617 274.794 495.617 274.005C495.617 273.216 495.929 272.459 496.485 271.899L553.864 211.001C554.424 210.445 555.18 210.132 555.97 210.132C556.759 210.132 557.516 210.445 558.075 211.001C558.355 211.279 558.578 211.609 558.729 211.973C558.881 212.337 558.959 212.727 558.959 213.121C558.959 213.516 558.881 213.906 558.729 214.27C558.578 214.634 558.355 214.964 558.075 215.242L500.697 276.11C500.412 276.385 500.075 276.601 499.706 276.745C499.336 276.888 498.942 276.957 498.546 276.947Z" fill="#DFEAEF"/>
<path d="M546.993 324.704C546.442 324.702 545.901 324.548 545.432 324.258C544.963 323.968 544.583 323.553 544.335 323.061C543.978 322.359 543.913 321.545 544.154 320.796C544.394 320.046 544.921 319.422 545.619 319.059L584.449 299.347C584.8 299.168 585.183 299.061 585.576 299.03C585.968 299 586.363 299.047 586.738 299.169C587.112 299.291 587.459 299.485 587.758 299.741C588.057 299.997 588.303 300.31 588.482 300.661C588.66 301.012 588.768 301.395 588.798 301.787C588.829 302.18 588.782 302.575 588.66 302.949C588.538 303.323 588.343 303.67 588.087 303.969C587.831 304.269 587.518 304.514 587.167 304.693L548.487 324.375C548.026 324.612 547.511 324.726 546.993 324.704Z" fill="#DFEAEF"/>
<path d="M283 252H347V275H283V252Z" fill="#093F68"/>
</svg>
