<svg width="26" height="29" viewBox="0 0 26 29" fill="none" xmlns="http://www.w3.org/2000/svg">
<path d="M21.8242 12.7185V4.62476C21.8242 2.07017 19.7538 -0.000244141 17.1992 -0.000244141H8.23828C5.68369 -0.000244141 3.61328 2.07017 3.61328 4.62476V12.7185H6.21484V4.62476C6.21484 3.50825 7.12178 2.60132 8.23828 2.60132H17.1992C18.3157 2.60132 19.2227 3.50825 19.2227 4.62476V12.7185H21.8242Z" fill="#EB5512"/>
<path fill-rule="evenodd" clip-rule="evenodd" d="M24.2812 12.7185H21.8242H19.2227H6.21484H3.61328H1.15625C0.516699 12.7185 0 13.2352 0 13.8748V27.7498C0 28.3893 0.516699 28.906 1.15625 28.906H24.2812C24.9208 28.906 25.4375 28.3893 25.4375 27.7498V13.8748C25.4375 13.2352 24.9208 12.7185 24.2812 12.7185ZM13.7305 23.197V21.282C14.0287 21.0678 14.2514 20.7646 14.3663 20.4159C14.4812 20.0671 14.4826 19.6909 14.3701 19.3414C14.2576 18.9919 14.0371 18.6871 13.7404 18.4708C13.4436 18.2546 13.0859 18.1381 12.7188 18.1381C12.3516 18.1381 11.9939 18.2546 11.6971 18.4708C11.4004 18.6871 11.1799 18.9919 11.0674 19.3414C10.9549 19.6909 10.9563 20.0671 11.0712 20.4159C11.1861 20.7646 11.4088 21.0678 11.707 21.282V23.197C11.707 23.356 11.8371 23.4861 11.9961 23.4861H13.4414C13.6004 23.4861 13.7305 23.356 13.7305 23.197Z" fill="white"/>
</svg>
