<svg width="630" height="504" viewBox="0 0 630 504" fill="none" xmlns="http://www.w3.org/2000/svg">
<path d="M627.012 142.222V484.163C627.012 488.433 625.316 492.528 622.297 495.548C619.278 498.567 615.183 500.263 610.913 500.263H19.0858C14.8159 500.263 10.721 498.567 7.70176 495.548C4.68253 492.528 2.98633 488.433 2.98633 484.163V142.222H627.012Z" fill="white"/>
<path d="M610.914 503.34H19.0864C14.0268 503.332 9.17666 501.318 5.59898 497.741C2.0213 494.163 0.00789946 489.313 0 484.253V142.222C0 141.43 0.31469 140.67 0.874845 140.11C1.435 139.549 2.19474 139.235 2.98691 139.235H627.013C627.805 139.235 628.565 139.549 629.125 140.11C629.685 140.67 630 141.43 630 142.222V484.164C630.008 486.677 629.52 489.166 628.565 491.491C627.609 493.815 626.205 495.928 624.433 497.709C622.66 499.49 620.553 500.904 618.234 501.87C615.914 502.836 613.426 503.336 610.914 503.34ZM5.97383 145.209V484.164C5.98172 487.639 7.36575 490.969 9.82312 493.427C12.2805 495.884 15.6111 497.268 19.0864 497.276H610.914C614.389 497.268 617.719 495.884 620.177 493.427C622.634 490.969 624.018 487.639 624.026 484.164V145.209H5.97383Z" fill="#093F68"/>
<path d="M19.0858 96.6115H610.913C615.183 96.6115 619.278 98.3076 622.297 101.327C625.316 104.346 627.012 108.441 627.012 112.711V142.251H2.98633V112.711C2.98633 108.441 4.68253 104.346 7.70176 101.327C10.721 98.3076 14.8159 96.6115 19.0858 96.6115Z" fill="#53637A"/>
<path d="M627.013 145.238H2.98691C2.19474 145.238 1.435 144.924 0.874845 144.364C0.31469 143.803 0 143.044 0 142.251V112.711C0.00789946 107.651 2.0213 102.801 5.59898 99.2235C9.17666 95.6458 14.0268 93.6324 19.0864 93.6245H610.914C615.973 93.6324 620.823 95.6458 624.401 99.2235C627.979 102.801 629.992 107.651 630 112.711V142.251C630 143.044 629.685 143.803 629.125 144.364C628.565 144.924 627.805 145.238 627.013 145.238ZM5.97383 139.265H624.026V112.711C624.018 109.236 622.634 105.905 620.177 103.448C617.719 100.99 614.389 99.6062 610.914 99.5983H19.0864C15.6111 99.6062 12.2805 100.99 9.82312 103.448C7.36575 105.905 5.98172 109.236 5.97383 112.711V139.265Z" fill="#093F68"/>
<path d="M589.796 500.353H40.2041C47.4165 474.264 58.3408 449.347 72.642 426.367C100.429 381.566 140.091 345.344 187.223 321.726C234.355 298.108 287.111 288.018 339.632 292.576C392.153 297.135 442.383 316.163 484.741 347.548C527.099 378.933 559.928 421.446 579.581 470.364C583.556 480.157 586.967 490.169 589.796 500.353Z" fill="#68E1FD"/>
<path d="M589.798 503.339H40.2053C39.7416 503.339 39.2843 503.231 38.8695 503.024C38.4548 502.817 38.094 502.516 37.8158 502.145C37.5422 501.777 37.3567 501.352 37.2739 500.901C37.191 500.45 37.2129 499.987 37.3379 499.546C44.6591 473.211 55.724 448.063 70.1939 424.873C98.2771 379.61 138.356 343.017 185.98 319.156C233.604 295.295 286.91 285.101 339.978 289.705C393.045 294.31 443.799 313.532 486.602 345.239C529.404 376.946 562.582 419.895 582.45 469.318C586.468 479.158 589.919 489.221 592.784 499.456C592.909 499.897 592.931 500.361 592.848 500.811C592.766 501.262 592.58 501.688 592.307 502.055C592.026 502.459 591.651 502.788 591.213 503.012C590.775 503.236 590.289 503.348 589.798 503.339ZM44.2078 497.366H585.825C583.279 488.587 580.288 479.944 576.864 471.469C554.993 417.034 516.7 370.768 467.313 339.106C417.926 307.444 359.899 291.961 301.303 294.81C242.708 297.658 186.456 318.697 140.373 355C94.2899 391.303 60.666 441.065 44.1779 497.366H44.2078Z" fill="#093F68"/>
<path d="M297.898 276.689L319.803 258.651L392.562 347.009C394.954 349.913 396.094 353.649 395.731 357.395C395.368 361.14 393.533 364.588 390.628 366.98C387.723 369.372 383.987 370.512 380.242 370.149C376.497 369.787 373.049 367.951 370.657 365.046L297.898 276.689Z" fill="#093F68"/>
<path d="M381.607 373.17H379.934C377.688 372.961 375.507 372.307 373.517 371.245C371.527 370.184 369.768 368.736 368.345 366.987L295.583 278.574C295.334 278.271 295.146 277.921 295.032 277.544C294.918 277.168 294.879 276.773 294.918 276.382C294.957 275.99 295.073 275.611 295.258 275.264C295.444 274.918 295.697 274.611 296.002 274.363L317.896 256.441C318.517 255.962 319.293 255.728 320.076 255.784C320.469 255.82 320.851 255.934 321.199 256.119C321.548 256.303 321.856 256.555 322.107 256.859L394.839 345.033C396.276 346.774 397.356 348.781 398.016 350.94C398.677 353.098 398.906 355.366 398.689 357.613C398.473 359.86 397.816 362.043 396.755 364.035C395.695 366.028 394.252 367.792 392.509 369.227C389.442 371.765 385.588 373.159 381.607 373.17ZM302.095 277.081L372.945 363.104C373.88 364.24 375.03 365.18 376.329 365.872C377.627 366.563 379.05 366.991 380.514 367.133C381.979 367.274 383.457 367.126 384.864 366.696C386.271 366.266 387.58 365.563 388.715 364.627C389.847 363.678 390.778 362.513 391.455 361.2C392.131 359.887 392.541 358.453 392.658 356.981C392.935 354.028 392.033 351.086 390.149 348.797L319.3 262.744L302.095 277.081Z" fill="#093F68"/>
<path d="M465.541 177.945C487.992 177.945 506.193 159.745 506.193 137.293C506.193 114.842 487.992 96.6413 465.541 96.6413C443.089 96.6413 424.889 114.842 424.889 137.293C424.889 159.745 443.089 177.945 465.541 177.945Z" fill="#FFBC0E"/>
<path d="M465.6 180.962C455.091 180.989 444.926 177.229 436.965 170.37C429.003 163.511 423.78 154.014 422.253 143.617C420.725 133.221 422.994 122.622 428.645 113.763C434.296 104.904 442.951 98.3776 453.022 95.3803C463.094 92.383 473.908 93.1152 483.484 97.4428C493.059 101.77 500.755 109.404 505.16 118.944C509.565 128.484 510.385 139.292 507.47 149.387C504.554 159.483 498.099 168.19 489.286 173.913C482.232 178.491 474.008 180.938 465.6 180.962ZM465.6 99.6281C458.343 99.5821 451.231 101.659 445.139 105.602C438.881 109.646 433.963 115.454 431.007 122.293C428.051 129.132 427.19 136.694 428.532 144.023C429.874 151.352 433.36 158.118 438.548 163.465C443.736 168.813 450.394 172.501 457.679 174.064C464.963 175.627 472.548 174.995 479.473 172.247C486.399 169.498 492.353 164.758 496.584 158.625C500.815 152.492 503.132 145.243 503.241 137.793C503.351 130.343 501.249 123.028 497.201 116.773C493.767 111.493 489.065 107.157 483.524 104.162C477.982 101.167 471.779 99.6081 465.48 99.6281H465.6Z" fill="#093F68"/>
<path d="M410.282 23.7008L537.883 220.24C537.883 220.24 446.931 222.988 408.072 248.227L323.393 303.216C307.827 313.176 288.954 316.575 270.892 312.672C252.829 308.768 237.044 297.879 226.98 282.381C216.916 266.883 213.39 248.033 217.172 229.945C220.954 211.857 231.736 195.998 247.167 185.83L331.846 130.841C370.735 105.602 410.282 23.7008 410.282 23.7008Z" fill="#68E1FD"/>
<path d="M285.459 317.524C269.71 317.548 254.375 312.479 241.743 303.072C229.112 293.665 219.861 280.426 215.373 265.33C210.884 250.234 211.397 234.091 216.837 219.311C222.276 204.531 232.35 191.906 245.554 183.322L330.233 128.332C367.957 103.84 407.205 23.1931 407.594 22.3866C407.826 21.9103 408.181 21.5043 408.622 21.2104C409.063 20.9165 409.574 20.7451 410.103 20.7139C410.63 20.6804 411.156 20.7871 411.628 21.0232C412.1 21.2593 412.502 21.6164 412.791 22.058L540.392 218.597C540.677 219.038 540.841 219.546 540.867 220.07C540.894 220.595 540.781 221.117 540.541 221.584C540.296 222.058 539.929 222.457 539.477 222.741C539.025 223.024 538.506 223.182 537.973 223.197C537.076 223.197 447.409 226.184 409.685 250.706L325.006 305.695C313.248 313.387 299.509 317.496 285.459 317.524ZM410.581 29.7045C401.441 47.626 367.569 111.188 333.429 133.35L248.75 188.34C234.238 198.181 224.162 213.32 220.686 230.507C217.211 247.693 220.611 265.558 230.158 280.265C239.705 294.973 254.638 305.351 271.751 309.173C288.864 312.995 306.793 309.956 321.69 300.707L406.369 245.718C440.539 223.555 512.285 218.478 532.477 217.462L410.581 29.7045Z" fill="#093F68"/>
<path d="M283.307 162.383L359.534 279.769L323.392 303.216C307.828 312.954 289.062 316.186 271.137 312.216C253.213 308.246 237.566 297.391 227.571 281.992C217.575 266.593 214.031 247.883 217.702 229.895C221.373 211.907 231.965 196.081 247.196 185.831L283.307 162.383Z" fill="#68E1FD"/>
<path d="M285.488 317.523C269.735 317.566 254.39 312.51 241.748 303.109C229.106 293.709 219.846 280.469 215.352 265.37C210.857 250.27 211.37 234.122 216.814 219.339C222.258 204.555 232.34 191.93 245.553 183.351L281.695 159.874C282.357 159.444 283.163 159.294 283.935 159.456C284.32 159.54 284.685 159.7 285.007 159.925C285.33 160.151 285.606 160.438 285.817 160.77L362.043 278.156C362.473 278.818 362.623 279.624 362.461 280.396C362.377 280.781 362.218 281.145 361.992 281.468C361.767 281.791 361.479 282.066 361.147 282.278L325.035 305.725C313.28 313.419 299.537 317.519 285.488 317.523ZM282.502 166.505L248.869 188.339C233.964 198.016 223.514 213.217 219.817 230.599C216.12 247.98 219.479 266.119 229.155 281.023C238.832 295.928 254.033 306.379 271.414 310.076C288.796 313.773 306.934 310.414 321.839 300.737L355.442 278.903L282.502 166.505Z" fill="#093F68"/>
<path d="M248.6 233.502C247.956 233.5 247.33 233.29 246.815 232.903C246.3 232.517 245.923 231.974 245.742 231.356C245.561 230.738 245.584 230.078 245.808 229.474C246.033 228.87 246.446 228.355 246.987 228.006L275.722 209.457C276.386 209.078 277.17 208.968 277.913 209.151C278.656 209.333 279.3 209.793 279.714 210.436C280.128 211.08 280.279 211.857 280.136 212.609C279.993 213.36 279.568 214.028 278.947 214.475L250.213 233.024C249.732 233.334 249.173 233.5 248.6 233.502Z" fill="#093F68"/>
<path d="M260.759 253.872C260.253 253.865 259.758 253.73 259.319 253.479C258.88 253.228 258.512 252.87 258.25 252.439C257.82 251.777 257.67 250.971 257.832 250.199C257.995 249.427 258.456 248.75 259.116 248.317L287.85 229.768C288.515 229.336 289.325 229.187 290.101 229.352C290.877 229.517 291.555 229.984 291.987 230.649C292.418 231.315 292.568 232.124 292.403 232.9C292.238 233.676 291.771 234.354 291.106 234.786L262.371 253.335C261.897 253.666 261.337 253.853 260.759 253.872Z" fill="#093F68"/>
<path d="M312.161 500.352L362.938 436.701C372.822 438.073 382.891 436.964 392.24 433.475C406.248 427.681 444.123 379.353 455.622 357.698C467.122 336.042 445.228 336.341 445.228 336.341C446.196 332.051 446.428 327.627 445.915 323.258C444.332 313.551 436.566 314.835 431.966 316.538C430.772 316.987 429.614 317.527 428.501 318.151C429.294 317.537 430.015 316.835 430.652 316.06C432.452 313.959 433.441 311.284 433.441 308.518C433.441 305.752 432.452 303.076 430.652 300.976C423.334 290.402 407.652 296.287 407.652 296.287C416.613 274.751 398.692 268.15 387.013 272.122C381.875 273.885 370.585 284.07 359.712 295.062L354.187 300.707C345.226 309.668 337.549 318.21 334.563 321.616L333.278 323.049L319.747 306.084C319.747 306.084 299.616 321.138 291.999 336.072C284.382 351.007 289.46 384.191 289.46 384.191L193.013 500.352H312.161Z" fill="#FFC9B0"/>
<path d="M312.163 503.34H193.015C192.444 503.341 191.884 503.178 191.402 502.871C190.92 502.564 190.537 502.126 190.297 501.607C190.06 501.094 189.973 500.524 190.047 499.963C190.121 499.403 190.353 498.875 190.715 498.441L286.296 383.266C285.4 376.694 282.115 348.498 289.283 334.639C297.109 319.465 317.151 304.172 317.987 303.515C318.608 303.039 319.391 302.826 320.167 302.921C320.943 303.016 321.651 303.411 322.139 304.023L333.489 318.24C336.476 315.104 343.585 307.278 352.098 298.557L357.385 293.15L357.654 292.882C378.801 271.734 384.297 269.852 386.089 269.225C389.921 267.819 394.068 267.507 398.067 268.325C402.066 269.143 405.758 271.058 408.73 273.855C411.269 276.573 414.704 282.278 412.284 291.985C418.258 291.03 427.577 291.119 433.193 299.214C434.628 301.07 435.622 303.229 436.098 305.527C436.574 307.825 436.52 310.202 435.941 312.476C437.48 312.188 439.064 312.234 440.584 312.611C442.104 312.988 443.526 313.687 444.752 314.662C445.979 315.636 446.981 316.862 447.692 318.258C448.404 319.654 448.807 321.186 448.874 322.751C449.346 326.364 449.286 330.027 448.695 333.623C450.971 333.853 453.173 334.563 455.155 335.706C457.138 336.849 458.855 338.399 460.194 340.254C463.181 344.943 462.405 351.276 458.253 359.072C446.305 381.623 408.282 430.071 393.377 436.224C384.092 439.755 374.094 441.005 364.225 439.868L314.463 502.204C314.188 502.553 313.839 502.835 313.441 503.031C313.043 503.228 312.606 503.333 312.163 503.34ZM199.377 497.366H310.729L360.64 434.64C360.972 434.229 361.406 433.913 361.899 433.724C362.392 433.535 362.927 433.48 363.448 433.565C372.783 434.845 382.29 433.819 391.137 430.578C404.309 425.142 441.765 377.381 453.026 356.174C455.146 352.172 457.237 346.676 455.146 343.271C452.667 339.209 445.32 339.209 445.29 339.209C444.846 339.214 444.406 339.12 444.003 338.934C443.6 338.748 443.244 338.474 442.96 338.133C442.678 337.792 442.476 337.393 442.367 336.964C442.259 336.536 442.247 336.088 442.333 335.654C443.212 331.735 443.434 327.698 442.99 323.707C442.946 322.768 442.696 321.85 442.257 321.019C441.818 320.187 441.202 319.463 440.451 318.898C438.025 318.061 435.369 318.2 433.043 319.286C432.024 319.678 431.026 320.127 430.056 320.63C429.397 321.005 428.619 321.115 427.881 320.938C427.143 320.76 426.501 320.308 426.084 319.674C425.669 319.047 425.507 318.286 425.629 317.544C425.751 316.802 426.148 316.134 426.741 315.672C427.356 315.197 427.917 314.656 428.414 314.059C429.774 312.449 430.507 310.403 430.48 308.296C430.453 306.189 429.666 304.163 428.264 302.589C422.29 294.017 408.909 298.915 408.76 298.975C408.215 299.18 407.622 299.221 407.055 299.094C406.487 298.966 405.969 298.676 405.564 298.258C405.16 297.837 404.889 297.308 404.782 296.734C404.676 296.161 404.74 295.569 404.966 295.032C407.953 287.565 407.953 281.651 404.369 277.917C402.169 275.99 399.489 274.695 396.612 274.169C393.735 273.643 390.77 273.906 388.031 274.93C386.238 275.557 380.085 278.963 361.895 297.153L361.656 297.392L356.399 302.768C346.483 312.894 338.478 321.795 336.835 323.497L335.58 324.901C335.279 325.217 334.918 325.469 334.518 325.643C334.118 325.818 333.687 325.911 333.25 325.917C332.817 325.902 332.392 325.792 332.005 325.596C331.618 325.4 331.279 325.122 331.01 324.782L319.331 310.146C313.925 314.567 300.335 326.335 294.6 337.476C287.491 351.126 292.3 383.445 292.36 383.743C292.423 384.161 292.397 384.587 292.284 384.994C292.171 385.4 291.973 385.779 291.703 386.103L199.377 497.366Z" fill="#093F68"/>
<path d="M413.091 377.471C412.518 377.477 411.955 377.317 411.469 377.012C410.984 376.706 410.597 376.267 410.354 375.747C410.112 375.228 410.024 374.649 410.102 374.081C410.179 373.512 410.419 372.978 410.791 372.542C418.109 363.91 442.99 334.34 442.99 334.34L447.56 338.163C447.56 338.163 422.679 367.763 415.361 376.396C415.084 376.729 414.737 376.998 414.345 377.183C413.953 377.369 413.525 377.467 413.091 377.471Z" fill="#093F68"/>
<path d="M393.348 359.4C392.564 359.397 391.814 359.086 391.257 358.534C390.701 357.974 390.389 357.217 390.389 356.428C390.389 355.639 390.701 354.882 391.257 354.322C396.873 348.528 426.055 316.329 426.353 316.03C426.608 315.713 426.926 315.451 427.285 315.26C427.645 315.07 428.04 314.955 428.446 314.923C428.852 314.891 429.26 314.942 429.645 315.073C430.031 315.204 430.385 315.413 430.687 315.686C430.989 315.959 431.232 316.291 431.4 316.662C431.569 317.032 431.661 317.434 431.669 317.841C431.677 318.248 431.602 318.652 431.448 319.029C431.294 319.406 431.065 319.747 430.774 320.033C429.579 321.347 401.234 352.62 395.558 358.474C395.274 358.773 394.931 359.009 394.55 359.169C394.17 359.328 393.76 359.407 393.348 359.4Z" fill="#093F68"/>
<path d="M370.468 339.059C369.862 339.067 369.268 338.889 368.765 338.551C368.44 338.327 368.162 338.041 367.948 337.709C367.735 337.377 367.589 337.005 367.519 336.616C367.45 336.228 367.458 335.829 367.544 335.443C367.63 335.057 367.791 334.693 368.019 334.37C376.233 322.422 404.489 295.032 405.684 293.867C406.25 293.313 407.014 293.006 407.806 293.014C408.599 293.023 409.356 293.346 409.91 293.912C410.465 294.478 410.772 295.242 410.763 296.034C410.755 296.827 410.432 297.584 409.865 298.138C409.567 298.437 380.803 326.425 372.917 337.805C372.64 338.195 372.272 338.512 371.846 338.731C371.419 338.949 370.947 339.062 370.468 339.059Z" fill="#093F68"/>
<path d="M37.1882 124.181C41.0648 124.181 44.2074 121.038 44.2074 117.161C44.2074 113.285 41.0648 110.142 37.1882 110.142C33.3116 110.142 30.1689 113.285 30.1689 117.161C30.1689 121.038 33.3116 124.181 37.1882 124.181Z" fill="#F56132"/>
<path d="M37.2167 110.172C38.6075 110.166 39.9687 110.573 41.1276 111.342C42.2864 112.111 43.1907 113.207 43.7257 114.491C44.2607 115.775 44.4022 117.189 44.1323 118.553C43.8624 119.918 43.1933 121.171 42.2098 122.154C41.2264 123.138 39.9729 123.807 38.6086 124.077C37.2442 124.347 35.8304 124.205 34.5466 123.67C33.2628 123.135 32.1668 122.231 31.3978 121.072C30.6288 119.913 30.2214 118.552 30.2273 117.161C30.2352 115.31 30.9741 113.537 32.2831 112.228C33.5922 110.919 35.3654 110.18 37.2167 110.172ZM37.2167 104.198C34.6456 104.198 32.1324 104.961 29.995 106.39C27.8577 107.819 26.1924 109.85 25.2098 112.226C24.2273 114.602 23.9717 117.216 24.4755 119.737C24.9793 122.258 26.2197 124.573 28.0398 126.389C29.8599 128.205 32.1778 129.44 34.7002 129.938C37.2226 130.436 39.836 130.175 42.2097 129.187C44.5833 128.199 46.6105 126.529 48.0346 124.388C49.4587 122.247 50.2157 119.732 50.2098 117.161C50.2018 113.721 48.8295 110.423 46.3936 107.993C43.9578 105.563 40.6575 104.198 37.2167 104.198Z" fill="#093F68"/>
<path d="M69.447 124.181C73.3236 124.181 76.4662 121.038 76.4662 117.161C76.4662 113.285 73.3236 110.142 69.447 110.142C65.5704 110.142 62.4277 113.285 62.4277 117.161C62.4277 121.038 65.5704 124.181 69.447 124.181Z" fill="#FFBC0E"/>
<path d="M69.4468 110.172C70.8363 110.172 72.1946 110.584 73.3495 111.357C74.5045 112.13 75.4041 113.228 75.9345 114.512C76.4649 115.796 76.6021 117.209 76.3289 118.572C76.0556 119.934 75.3841 121.185 74.3995 122.165C73.4148 123.146 72.1613 123.812 70.7977 124.079C69.4342 124.347 68.0219 124.203 66.7398 123.668C65.4578 123.132 64.3636 122.227 63.5959 121.069C62.8282 119.911 62.4216 118.551 62.4275 117.161C62.4275 116.241 62.6093 115.33 62.9624 114.48C63.3155 113.63 63.833 112.858 64.4852 112.209C65.1374 111.559 65.9114 111.045 66.7629 110.695C67.6143 110.346 68.5264 110.168 69.4468 110.172ZM69.4468 104.198C66.8744 104.192 64.3582 104.95 62.217 106.375C60.0757 107.801 58.4057 109.83 57.4186 112.205C56.4315 114.581 56.1717 117.196 56.672 119.719C57.1724 122.242 58.4105 124.56 60.2294 126.379C62.0483 128.198 64.3662 129.436 66.8894 129.936C69.4126 130.436 72.0275 130.177 74.4029 129.19C76.7783 128.202 78.8073 126.532 80.2327 124.391C81.6581 122.25 82.4159 119.734 82.41 117.161C82.4021 113.726 81.0338 110.433 78.6044 108.004C76.175 105.574 72.8824 104.206 69.4468 104.198Z" fill="#093F68"/>
<path d="M101.674 124.181C105.55 124.181 108.693 121.038 108.693 117.161C108.693 113.285 105.55 110.142 101.674 110.142C97.7969 110.142 94.6543 113.285 94.6543 117.161C94.6543 121.038 97.7969 124.181 101.674 124.181Z" fill="#70CC40"/>
<path d="M101.676 110.172C103.065 110.172 104.424 110.584 105.578 111.357C106.733 112.13 107.633 113.228 108.163 114.512C108.694 115.796 108.831 117.209 108.558 118.572C108.285 119.934 107.613 121.185 106.628 122.165C105.644 123.146 104.39 123.812 103.027 124.079C101.663 124.347 100.251 124.203 98.9688 123.668C97.6867 123.132 96.5925 122.227 95.8248 121.069C95.0572 119.911 94.6505 118.551 94.6564 117.161C94.6643 115.305 95.4073 113.527 96.7228 112.217C98.0383 110.907 99.8192 110.172 101.676 110.172ZM101.676 104.198C99.1046 104.198 96.5913 104.961 94.454 106.39C92.3167 107.819 90.6513 109.85 89.6688 112.226C88.6863 114.602 88.4307 117.216 88.9345 119.737C89.4382 122.258 90.6787 124.573 92.4988 126.389C94.3189 128.205 96.6368 129.44 99.1592 129.938C101.682 130.436 104.295 130.175 106.669 129.187C109.042 128.199 111.069 126.529 112.494 124.388C113.918 122.247 114.675 119.732 114.669 117.161C114.661 113.721 113.288 110.423 110.853 107.993C108.417 105.563 105.116 104.198 101.676 104.198Z" fill="#093F68"/>
<path d="M228.379 317.135C228.16 326.161 226.115 335.048 222.368 343.262C218.62 351.476 213.248 358.845 206.575 364.926C194.985 375.35 179.424 382.071 171.837 395.691C160.636 415.883 170.493 445.364 153.647 461.164C145.492 468.781 133.007 470.424 122.224 467.616C111.441 464.808 102.063 458.088 93.6693 450.74C86.2973 444.704 79.8735 437.596 74.6128 429.652C73.9258 428.547 73.2986 427.442 72.7012 426.367C108.31 368.961 163.106 326.028 227.364 305.188C228.126 309.123 228.466 313.128 228.379 317.135Z" fill="#70CC40"/>
<path d="M132.202 471.798C128.572 471.798 124.957 471.326 121.449 470.394C109.083 467.168 99.0474 459.342 91.5801 452.89C83.99 446.651 77.3756 439.312 71.9561 431.116C71.2392 429.981 70.5821 428.816 69.9549 427.711C69.6927 427.257 69.5547 426.742 69.5547 426.217C69.5547 425.693 69.6927 425.178 69.9549 424.724C105.933 366.714 161.3 323.326 226.23 302.26C226.634 302.128 227.061 302.084 227.484 302.131C227.906 302.177 228.314 302.313 228.679 302.529C229.041 302.745 229.354 303.035 229.595 303.38C229.837 303.725 230.004 304.117 230.083 304.53C230.893 308.712 231.254 312.967 231.159 317.225C230.89 326.637 228.734 335.899 224.819 344.462C220.904 353.025 215.31 360.715 208.368 367.076C204.202 370.668 199.834 374.018 195.286 377.112C186.863 383.086 178.888 388.702 174.377 397.065C169.867 405.428 168.941 415.823 168.135 425.919C167.03 439.539 165.924 453.637 155.62 463.285C149.162 468.966 140.801 472.006 132.202 471.798ZM76.0482 426.337L77.0338 427.98C82.1386 435.669 88.3714 442.546 95.5228 448.38C102.393 454.354 111.712 461.702 122.853 464.629C133.994 467.556 144.658 465.256 151.498 458.894C160.07 450.829 161.086 438.464 162.131 425.411C162.967 414.688 163.863 403.577 169.091 394.138C174.318 384.699 183.338 378.277 191.94 372.184C196.299 369.24 200.479 366.039 204.456 362.596C210.821 356.803 215.953 349.786 219.545 341.965C223.138 334.144 225.117 325.679 225.364 317.076C225.419 314.391 225.279 311.705 224.946 309.041C163.299 329.849 110.712 371.275 76.0482 426.337Z" fill="#093F68"/>
<path d="M579.61 470.274C566.497 467.287 554.161 460.447 540.78 459.402C526.831 458.297 513.3 463.584 499.71 466.959C484.775 470.663 468.467 471.977 454.667 465.286C440.868 458.596 431.16 441.749 436.746 427.472C443.765 409.341 468.138 405.936 481.968 392.316C491.317 383.116 494.811 370.571 497.739 357.548C533.937 387.77 562.068 426.503 579.61 470.274Z" fill="#70CC40"/>
<path d="M579.611 473.261C579.393 473.29 579.172 473.29 578.954 473.261C573.497 471.952 568.13 470.296 562.884 468.303C555.705 465.326 548.161 463.317 540.452 462.329C530.207 461.523 520.261 464.33 509.747 467.287C506.611 468.154 503.474 469.05 500.338 469.826C481.132 474.605 465.75 473.978 453.264 467.944C438.808 460.925 427.547 442.526 433.82 426.337C438.449 414.389 449.74 408.415 460.702 402.621C467.613 399.382 474.029 395.178 479.758 390.135C488.719 381.443 491.885 369.436 494.693 356.861C494.806 356.359 495.046 355.894 495.392 355.512C495.737 355.13 496.176 354.843 496.664 354.681C497.165 354.495 497.706 354.447 498.231 354.542C498.756 354.636 499.247 354.87 499.651 355.218C536.256 385.76 564.731 424.887 582.538 469.109C582.727 469.607 582.78 470.147 582.691 470.672C582.602 471.197 582.374 471.689 582.03 472.096C581.746 472.466 581.379 472.764 580.959 472.966C580.539 473.168 580.077 473.269 579.611 473.261ZM499.382 362.954C496.605 374.364 492.692 385.775 483.91 394.407C477.78 399.866 470.887 404.404 463.45 407.878C453.055 413.403 443.199 418.631 439.375 428.517C434.298 441.63 443.826 456.714 455.893 462.568C467.034 467.974 481.102 468.542 498.904 464.002C501.891 463.255 505.058 462.389 508.134 461.523C518.708 458.536 529.64 455.549 540.99 456.385C549.188 457.391 557.221 459.459 564.885 462.538C568.081 463.673 571.307 464.838 574.563 465.794C557.66 426.237 531.946 391.063 499.382 362.954Z" fill="#093F68"/>
<path d="M201.497 405.219C197.46 410.301 194.153 415.921 191.67 421.916C189.669 425.559 188.352 429.538 187.787 433.655C187.54 435.723 187.856 437.82 188.703 439.723C189.549 441.627 190.894 443.266 192.596 444.467C195.175 445.777 198.109 446.217 200.959 445.722C214.37 444.169 225.541 433.326 229.902 420.572C237.16 399.395 215.386 389.329 201.497 405.219Z" fill="#70CC40"/>
<path d="M198.51 448.858C195.921 448.938 193.359 448.308 191.102 447.036C188.919 445.558 187.183 443.509 186.083 441.113C184.982 438.717 184.559 436.065 184.86 433.446C185.432 428.957 186.83 424.613 188.982 420.632C191.595 414.388 195.063 408.538 199.287 403.248C208.008 393.242 218.851 392.794 225.751 396.766C233.606 401.277 236.354 410.984 232.77 421.528C227.782 436.164 215.147 447.096 201.348 448.709C200.392 448.798 199.436 448.858 198.51 448.858ZM216.85 400.41C214.315 400.522 211.834 401.184 209.581 402.349C207.327 403.515 205.353 405.157 203.797 407.161C199.955 412.05 196.791 417.435 194.388 423.171C192.575 426.508 191.362 430.137 190.804 433.894C190.611 435.404 190.819 436.939 191.406 438.343C191.993 439.748 192.939 440.974 194.149 441.899C196.166 442.894 198.454 443.199 200.661 442.765C212.22 441.421 222.853 432.102 227.095 419.586C229.783 411.761 228.11 405.01 222.794 401.934C220.988 400.922 218.95 400.397 216.879 400.41H216.85Z" fill="#093F68"/>
<path d="M150.51 192.342H53.4654C52.6733 192.342 51.9135 192.027 51.3534 191.467C50.7932 190.907 50.4785 190.147 50.4785 189.355C50.4785 188.563 50.7932 187.803 51.3534 187.243C51.9135 186.683 52.6733 186.368 53.4654 186.368H150.51C151.302 186.368 152.062 186.683 152.622 187.243C153.182 187.803 153.497 188.563 153.497 189.355C153.497 190.147 153.182 190.907 152.622 191.467C152.062 192.027 151.302 192.342 150.51 192.342Z" fill="#DFEAEF"/>
<path d="M108.693 233.502H53.4654C52.6733 233.502 51.9135 233.187 51.3534 232.627C50.7932 232.067 50.4785 231.307 50.4785 230.515C50.4785 229.723 50.7932 228.963 51.3534 228.403C51.9135 227.843 52.6733 227.528 53.4654 227.528H108.693C109.486 227.528 110.245 227.843 110.806 228.403C111.366 228.963 111.68 229.723 111.68 230.515C111.68 231.307 111.366 232.067 110.806 232.627C110.245 233.187 109.486 233.502 108.693 233.502Z" fill="#DFEAEF"/>
<path d="M479.279 58.1101C478.67 58.1087 478.076 57.9211 477.577 57.5725C476.928 57.1202 476.485 56.4292 476.345 55.6509C476.205 54.8726 476.379 54.0706 476.83 53.4207L512.673 1.299C513.12 0.645506 513.809 0.19657 514.588 0.0509327C515.367 -0.0947043 516.171 0.0748904 516.825 0.522412C517.478 0.970032 517.927 1.6589 518.073 2.4375C518.218 3.2161 518.049 4.02065 517.601 4.67422L481.758 56.8257C481.481 57.2256 481.11 57.5516 480.678 57.7754C480.246 57.9993 479.766 58.1142 479.279 58.1101Z" fill="#093F68"/>
<path d="M515.122 112.054C514.465 112.06 513.824 111.85 513.299 111.455C512.773 111.061 512.393 110.504 512.216 109.871C512.039 109.238 512.076 108.565 512.32 107.955C512.565 107.345 513.003 106.833 513.568 106.498L593.618 57.662C594.292 57.2529 595.1 57.1269 595.867 57.3116C596.633 57.4962 597.296 57.9765 597.71 58.6477C597.917 58.9827 598.056 59.3553 598.119 59.7443C598.181 60.1332 598.166 60.5306 598.075 60.9138C597.983 61.2969 597.817 61.6581 597.585 61.9766C597.353 62.2951 597.061 62.5646 596.724 62.7696L516.675 111.606C516.208 111.895 515.671 112.05 515.122 112.054Z" fill="#093F68"/>
<path d="M598.429 182.664H598.25L541.05 179.229C540.658 179.206 540.274 179.105 539.921 178.933C539.568 178.762 539.252 178.522 538.991 178.228C538.73 177.934 538.53 177.591 538.401 177.22C538.273 176.849 538.219 176.455 538.243 176.063C538.266 175.671 538.367 175.287 538.539 174.934C538.711 174.58 538.95 174.264 539.244 174.004C539.538 173.743 539.881 173.543 540.252 173.414C540.624 173.286 541.017 173.232 541.409 173.256L598.758 176.69C599.15 176.702 599.536 176.791 599.894 176.952C600.252 177.113 600.574 177.343 600.843 177.629C601.112 177.914 601.323 178.25 601.462 178.617C601.601 178.984 601.667 179.375 601.655 179.767C601.643 180.159 601.554 180.545 601.393 180.903C601.232 181.261 601.002 181.584 600.717 181.853C600.431 182.122 600.095 182.332 599.728 182.471C599.361 182.61 598.971 182.676 598.578 182.664H598.429Z" fill="#093F68"/>
<path d="M150.511 233.502H130.828C130.036 233.502 129.276 233.187 128.716 232.627C128.156 232.067 127.841 231.307 127.841 230.515C127.841 229.723 128.156 228.963 128.716 228.403C129.276 227.843 130.036 227.528 130.828 227.528H150.511C151.304 227.528 152.063 227.843 152.624 228.403C153.184 228.963 153.498 229.723 153.498 230.515C153.498 231.307 153.184 232.067 152.624 232.627C152.063 233.187 151.304 233.502 150.511 233.502Z" fill="#DFEAEF"/>
<path d="M127.451 273.855H53.4654C52.6733 273.855 51.9135 273.54 51.3534 272.98C50.7932 272.42 50.4785 271.66 50.4785 270.868C50.4785 270.076 50.7932 269.316 51.3534 268.756C51.9135 268.196 52.6733 267.881 53.4654 267.881H127.451C128.243 267.881 129.003 268.196 129.563 268.756C130.124 269.316 130.438 270.076 130.438 270.868C130.438 271.66 130.124 272.42 129.563 272.98C129.003 273.54 128.243 273.855 127.451 273.855Z" fill="#DFEAEF"/>
<path d="M589.796 308.085H532.836C532.043 308.085 531.284 307.77 530.724 307.21C530.163 306.65 529.849 305.89 529.849 305.098C529.849 304.306 530.163 303.546 530.724 302.986C531.284 302.426 532.043 302.111 532.836 302.111H589.796C590.588 302.111 591.348 302.426 591.908 302.986C592.468 303.546 592.783 304.306 592.783 305.098C592.783 305.89 592.468 306.65 591.908 307.21C591.348 307.77 590.588 308.085 589.796 308.085Z" fill="#DFEAEF"/>
<path d="M569.814 339.238H532.836C532.043 339.238 531.284 338.924 530.724 338.364C530.163 337.803 529.849 337.044 529.849 336.252C529.849 335.459 530.163 334.7 530.724 334.139C531.284 333.579 532.043 333.265 532.836 333.265H569.814C570.606 333.265 571.366 333.579 571.926 334.139C572.486 334.7 572.8 335.459 572.8 336.252C572.8 337.044 572.486 337.803 571.926 338.364C571.366 338.924 570.606 339.238 569.814 339.238Z" fill="#DFEAEF"/>
</svg>
